<ttFont>
<head>
    <!-- Most of this table will be recalculated by the compiler -->
    <tableVersion value="1.0"/>
    <fontRevision value="1.0"/>
    <checkSumAdjustment value="0xb11e5d21"/>
    <magicNumber value="0x5f0f3cf5"/>
    <flags value="00000000 00000011"/>
    <unitsPerEm value="2048"/>
    <created value="Tue May 30 14:30:25 2017"/>
    <modified value="Wed May 31 02:49:42 2017"/>
    <xMin value="-574"/>
    <yMin value="-494"/>
    <xMax value="2767"/>
    <yMax value="2095"/>
<macStyle value="00000000 00000010"/>
    <lowestRecPPEM value="3"/>
    <fontDirectionHint value="2"/>
    <indexToLocFormat value="0"/>
    <glyphDataFormat value="0"/>
  </head>
          <CharString index="0">
            -153 435 -107 callgsubr
            return
          </CharString>
          <CharString index="1">
            100 rmoveto
            -173 -109 128 200 281 170 230 225 177 117 -130 -190 -288 -168 -231 -239 hvcurveto
            424 -100 rmoveto
            63 callsubr
            -128 hlineto
            -53 -256 rlineto
            -6 hlineto
            162 -31 -136 111 -180 hhcurveto
            -297 -229 -285 -349 -264 152 -176 234 146 145 89 128 73 hvcurveto
            4 hlineto
            -43 -200 rlineto
            return
          </CharString>
          <CharString index="2">
            100 rmoveto
            -181 -116 133 204 286 170 217 230 180 116 -133 -204 -286 -170 -217 -229 hvcurveto
            103 957 rmoveto
            -304 -230 -271 -353 -272 169 -178 262 303 230 271 353 272 -168 178 -262 hvcurveto
            return
          </CharString>
          <CharString index="3">
            1040 rmoveto
            -37 callgsubr
            -37 -140 -133 -181 hhcurveto
            -155 -84 77 142 27 6 49 8 38 hvcurveto
            129 606 -64 callgsubr
            -132 -627 rlineto
            -8 -41 -6 -54 -38 vvcurveto
            -167 126 -130 202 165 134 90 98 60 vhcurveto
            65 callsubr
            return
          </CharString>
          <CharString index="4">
            rmoveto
            57 47 47 57 57 -47 47 -57 -57 -47 -47 -57 -57 47 -47 57 hvcurveto
            return
          </CharString>
          <CharString index="5">
            1274 rmoveto
            4 hlineto
            113 -714 rlineto
            -525 hlineto
            611 -560 rmoveto
            130 hlineto
            -232 1443 88 callsubr
            -844 -25 callsubr
            151 hlineto
            256 443 rlineto
            609 hlineto
            return
          </CharString>
          <CharString index="6">
            -270 9 238 -168 301 hhcurveto
            326 183 201 229 177 -113 115 -233 78 hvcurveto
            -108 38 rlineto
            -192 66 -81 75 122 vvcurveto
            141 125 121 218 214 139 -118 -168 10 vhcurveto
            137 hlineto
            250 -5 -209 160 -284 hhcurveto
            -286 -200 -161 -235 -185 111 -110 241 -83 hvcurveto
            107 -37 rlineto
            186 -64 80 -73 -134 vvcurveto
            -176 -154 -105 -210 -237 -159 128 186 -17 vhcurveto
            return
          </CharString>
          <CharString index="7">
            759 rmoveto
            -134 76 -82 182 -59 vhcurveto
            90 -30 rlineto
            147 -48 44 -38 -81 vvcurveto
            -110 -106 -84 -147 -161 -107 85 124 -18 vhcurveto
            -133 hlineto
            -184 10 164 -135 239 hhcurveto
            228 164 130 181 135 -75 78 -188 61 hvcurveto
            -90 29 rlineto
            -138 45 -51 46 82 vvcurveto
            102 97 75 146 139 101 -84 -118 12 vhcurveto
            127 hlineto
            183 -7 -152 129 -218 hhcurveto
            -222 -153 -126 -172 hvcurveto
            return
          </CharString>
          <CharString index="8">
            -385 rmoveto
            253 188 143 272 58 hvcurveto
            214 1010 91 callgsubr
            -52 -254 rlineto
            -5 hlineto
            157 -28 -135 114 -179 hhcurveto
            -325 -202 -303 -320 -264 154 -170 235 147 141 83 128 70 hvcurveto
            4 hlineto
            -41 -182 rlineto
            -195 -47 -128 -105 -189 hhcurveto
            -159 -107 78 105 -12 hvcurveto
            -136 hlineto
            -168 175 -129 237 vhcurveto
            73 502 rmoveto
            -183 -102 128 193 278 166 223 230 168 122 -129 -190 -275 -160 -228 -241 hvcurveto
            return
          </CharString>
          <CharString index="9">
            rmoveto
            56 -1 rlineto
            102 -3 49 -26 -53 vvcurveto
            -56 -52 -31 -83 -54 -48 11 19 -43 vhcurveto
            -19 -90 rlineto
            -20 44 67 -13 62 hhcurveto
            138 94 74 114 94 -69 53 -118 1 hvcurveto
            84 140 1 10 rlineto
            -102 hlineto
            -95 -164 rlineto
            return
          </CharString>
          <CharString index="10" raw="1">
            1c052d2b 1d0b  
          </CharString>
          <CharString index="11">
            rmoveto
            149 144 88 124 71 hvcurveto
            4 hlineto
            -41 -195 rlineto
            34 callgsubr
            -133 hlineto
            -140 -653 rlineto
            -5 hlineto
            153 -27 -141 114 -178 hhcurveto
            -293 -235 -278 -359 -261 151 -176 233 hvcurveto
            30 117 rmoveto
            -174 -107 127 200 290 177 222 219 178 114 -130 -190 -288 -171 -231 -236 hvcurveto
            return
          </CharString>
          <CharString index="12">
            rmoveto
            138 hlineto
            6 0 3 -1 10 vhcurveto
            284 -14 -219 186 -314 hhcurveto
            -424 -311 -378 -496 -372 229 -241 353 286 231 167 266 82 108 callsubr
            -193 -73 -171 -114 -213 hhcurveto
            -272 -173 191 302 424 248 318 344 233 164 -136 -210 14 hvcurveto
            1 -6 1 -6 -5 vvcurveto
            return
          </CharString>
          <CharString index="13">
            266 1432 721 rmoveto
            -574 hlineto
            -26 -121 rlineto
            435 hlineto
            -17 -79 rlineto
            -257 -54 -190 -160 -249 hhcurveto
            -278 -165 199 294 364 201 378 393 236 155 -138 -218 19 hvcurveto
            138 hlineto
            3 0 4 3 vvcurveto
            279 -15 -210 193 -322 hhcurveto
            -481 -254 -447 -427 -362 221 -251 361 319 238 195 341 74 hvcurveto
            return
          </CharString>
          <CharString index="14">
            73 80 hmoveto
            140 hlineto
            126 591 rlineto
            386 hlineto
            12 hlineto
            207 -591 rlineto
            144 hlineto
            -216 610 rlineto
            253 45 152 183 230 vvcurveto
            226 -152 149 -275 vhcurveto
            -468 hlineto
            113 -122 rmoveto
            347 hlineto
            185 107 -104 -162 -202 -163 -139 -234 hvcurveto
            -372 hlineto
            return
          </CharString>
          <CharString index="15">
            -17 rmoveto
            212 181 126 184 54 99 callgsubr
            -122 -51 -113 -71 -148 hhcurveto
            -179 -112 130 198 25 2 23 2 20 hvcurveto
            782 hlineto
            6 38 4 44 52 vvcurveto
            255 -157 172 -238 -158 -133 -74 -126 -89 vhcurveto
            -4 hlineto
            124 -40 -122 76 -167 hhcurveto
            -234 -168 -131 -185 -31 hvcurveto
            139 hlineto
            117 22 104 82 158 hhcurveto
            149 89 -76 -115 -26 -2 -18 -5 -19 hvcurveto
            -17 -80 -335 -16 rlineto
            -273 -13 -156 -116 -197 vvcurveto
            -158 136 -123 189 188 174 85 180 95 vhcurveto
            3 hlineto
            -162 50 130 -103 194 hhcurveto
            -266 620 rmoveto
            206 53 141 132 182 hhcurveto
            156 109 -121 -172 -23 -1 -12 -2 -10 hvcurveto
            -1174 -506 rmoveto
            -136 -88 76 105 120 109 75 181 10 hvcurveto
            319 16 -30 -135 rlineto
            -152 -33 -147 -115 -175 hhcurveto
            return
          </CharString>
          <CharString index="16">
            rmoveto
            -305 -25 callsubr
            524 hlineto
            479 323 357 509 358 -219 219 -380 hvcurveto
            -308 -122 rmoveto
            285 hlineto
            317 165 -168 -304 -421 -275 -306 -396 hvcurveto
            -351 hlineto
            return
          </CharString>
          <CharString index="17">
            219 hmoveto
            263 107 callgsubr
            4 hlineto
            581 -1236 -12 callsubr
            -139 hlineto
            -263 106 callsubr
            -4 hlineto
            -581 107 callgsubr
            -139 -98 callgsubr
            return
          </CharString>
          <CharString index="18">
            337 1366 835 rmoveto
            -406 -254 -325 -351 -271 -174 195 309 405 253 327 352 271 174 -197 -308 vhcurveto
            140 4 rmoveto
            165 -47 148 -84 106 vhcurveto
            4 vlineto
            -5 9 25 -4 12 hhcurveto
            101 77 62 104 21 hvcurveto
            45 217 rlineto
            -124 hlineto
            -35 -170 rlineto
            -71 -15 -38 -35 -75 -145 -59 106 -253 112 callsubr
            -386 -476 -380 231 -246 353 428 318 385 476 hvcurveto
            return
          </CharString>
          <CharString index="19">
            -22 1079 608 rmoveto
            103 -24 92 -47 73 vhcurveto
            3 vlineto
            -4 7 41 -3 9 hhcurveto
            85 69 54 100 21 hvcurveto
            38 173 rlineto
            -125 hlineto
            -25 -122 rlineto
            -82 -17 -36 -26 -76 -105 -81 88 -164 hhcurveto
            -305 -228 -276 -349 -272 168 -177 261 305 229 274 351 hvcurveto
            -829 -173 rmoveto
            283 167 222 231 181 116 -131 -204 -285 -168 -220 -231 -180 84 callsubr
            return
          </CharString>
          <CharString index="20">
            39 811 171 rmoveto
            65 callsubr
            201 943 rlineto
            70 hlineto
            92 67 47 92 20 hvcurveto
            39 178 rlineto
            -125 hlineto
            -27 -127 rlineto
            -69 -14 -37 -24 -80 hhcurveto
            -118 hlineto
            -134 -56 callsubr
            return
          </CharString>
          <CharString index="21">
            hmoveto
            330 224 183 264 157 -100 117 -162 23 hvcurveto
            1 4 rlineto
            188 42 142 150 186 vvcurveto
            190 -152 127 -232 vhcurveto
            -496 -98 callgsubr
            420 1322 rmoveto
            334 hlineto
            190 101 -80 -143 -172 -165 -125 -222 hvcurveto
            -348 hlineto
            -145 -681 rmoveto
            120 563 rlineto
            371 hlineto
            198 120 -83 -165 -181 -168 -134 -244 hvcurveto
            return
          </CharString>
          <CharString index="22">
            rmoveto
            46 33 6 5 19 hvcurveto
            23 109 rlineto
            -2 -11 -25 -2 -18 hhcurveto
            -55 -29 24 45 16 4 23 5 21 hvcurveto
            257 1207 -64 callgsubr
            -263 -1232 rlineto
            -6 -28 -3 -28 -22 vvcurveto
            -88 59 -54 98 vhcurveto
            return
          </CharString>
          <CharString index="23">
            -109 159 731 rmoveto
            111 callsubr
            58 111 78 141 hhcurveto
            184 111 -126 -197 -2 hvcurveto
            -8 0 -7 -1 -8 vhcurveto
            -492 hlineto
            -23 -111 rlineto
            503 hlineto
            -224 -39 -148 -158 -208 hhcurveto
            -146 -102 84 115 -15 hvcurveto
            -132 hlineto
            -174 12 138 -143 241 hhcurveto
            337 213 293 358 258 -166 166 -249 -225 -165 -129 -197 -68 hvcurveto
            return
          </CharString>
          <CharString index="24">
            643 -22 rmoveto
            389 287 293 448 59 hvcurveto
            444 68 -210 302 -376 hhcurveto
            -305 -233 -174 -293 -88 hvcurveto
            139 hlineto
            216 86 172 123 216 hhcurveto
            270 162 -213 -324 -24 hvcurveto
            -669 hlineto
            -26 -122 rlineto
            677 hlineto
            -350 -68 -224 -224 -286 hhcurveto
            -208 -153 122 189 -28 hvcurveto
            -141 hlineto
            -250 16 219 -187 279 hhcurveto
            return
          </CharString>
          <CharString index="25">
            rmoveto
            331 302 88 callsubr
            -235 -219 rlineto
            -5 hlineto
            -140 219 rlineto
            -121 hlineto
            201 47 callsubr
          </CharString>
          <CharString index="26">
            rmoveto
            -108 hlineto
            -335 -285 80 callgsubr
            239 203 rlineto
            5 hlineto
            153 -203 rlineto
            120 hlineto
            return
          </CharString>
          <CharString index="27">
            -489 56 hmoveto
            111 callsubr
            613 rlineto
            198 43 105 117 169 hhcurveto
            51 57 -12 -13 23 hvcurveto
            29 127 rlineto
            13 -25 -50 12 -51 hhcurveto
            -128 -98 -62 -109 -69 hvcurveto
            -4 hlineto
            33 156 rlineto
            -126 hlineto
            return
          </CharString>
          <CharString index="28">
            rmoveto
            -173 -37 116 -101 188 hhcurveto
            186 142 101 173 36 hvcurveto
            -120 hlineto
            -112 -24 -98 -70 -113 hhcurveto
            -112 -67 70 112 23 hvcurveto
            endchar
          </CharString>
          <CharString index="29" raw="1">
            f9c3f997 f9b515fc 0c06f71c f916560a
            f724f939 05f80d06 f882fd4f 15f83df7
            d2f815f8 79f806fb 77f78bfb f3fc43fb
            ccfc1efc 71fc05f7 77fb8bf7 f31ff8ef
            f9f615fc 33fb93fb d9fbf0fb 9ffb3ff7
            56f7c1f8 2bf78ef7 e1f7f5f7 9ff73ffb
            56fbc11e 0b  
          </CharString>
          <CharString index="30">
            rmoveto
            -103 hlineto
            -337 -294 53 callsubr
            238 210 rlineto
            5 hlineto
            148 -210 rlineto
            121 hlineto
            return
          </CharString>
          <CharString index="31">
            1212 rmoveto
            4 hlineto
            104 -1212 58 callsubr
            698 1443 82 callsubr
            -580 -1224 rlineto
            -4 hlineto
            -101 1224 rlineto
            -129 hlineto
            -608 -1225 rlineto
            -4 hlineto
            -68 1225 rlineto
            -129 hlineto
            90 67 callsubr
            return
          </CharString>
          <CharString index="32">
            48 40 39 48 callsubr
            -48 -49 -5 callgsubr
            49 hvcurveto
            2 -190 rmoveto
            -31 callsubr
            -238 -1112 rlineto
            -120 -25 -52 -47 -106 hhcurveto
            -17 -15 1 2 -20 hvcurveto
            -26 -115 rlineto
            -3 26 33 -1 16 hhcurveto
            174 1 103 88 callgsubr
          </CharString>
          <CharString index="33">
            rmoveto
            -617 128 callgsubr
            617 hlineto
            endchar
          </CharString>
          <CharString index="34">
            hmoveto
            252 1192 rlineto
            5 hlineto
            250 -1185 rlineto
            119 hlineto
            755 1185 rlineto
            6 hlineto
            -254 -1192 rlineto
            130 -27 callsubr
            -170 hlineto
            -802 -1271 rlineto
            -4 hlineto
            -267 1271 rlineto
            -150 -98 callgsubr
            return
          </CharString>
          <CharString index="35">
            rmoveto
            -2 callsubr
            -307 -1443 rlineto
            return
          </CharString>
          <CharString index="36">
            rmoveto
            75 hlineto
            74 50 -39 -59 -71 -59 -50 -84 -80 -56 49 65 5 hvcurveto
            2 0 2 1 4 vhcurveto
            -116 hlineto
            -2 -13 -1 -10 -7 vvcurveto
            -112 103 -79 145 154 113 88 121 73 -47 57 -75 16 vhcurveto
            1 3 rlineto
            95 14 68 71 87 vvcurveto
            102 -94 73 -130 -128 -100 -71 -114 -24 vhcurveto
            114 hlineto
            55 16 52 35 60 hhcurveto
            68 47 -38 -56 -64 -55 -44 -82 hvcurveto
            -89 hlineto
            return
          </CharString>
          <CharString index="37">
            55 219 hmoveto
            108 508 241 210 414 -718 rlineto
            159 hlineto
            -466 803 715 640 129 callsubr
            -835 -743 rlineto
            -4 hlineto
            158 743 rlineto
            -139 -98 callgsubr
            return
          </CharString>
          <CharString index="38" raw="1">
            15fc42fb cffc15fc 75fc0bf7 7ffb8af7
            f6a00a1f 89fb1215 f7a5f745 fb56fbc7
            fc2cfb90 fbdafbf3 fba4fb46 f756f7c7
            f82cf791 f7daf7f2 1f0b 
          </CharString>
          <CharString index="39">
            452 693 763 rmoveto
            198 133 -94 -180 -216 -176 -151 -238 hvcurveto
            -360 hlineto
            137 641 rlineto
            -302 -763 rmoveto
            538 hlineto
            309 234 201 296 238 -183 150 -263 hvcurveto
            -307 hlineto
            118 558 rlineto
            -7 callgsubr
            1019 -1443 -72 callsubr
            return
          </CharString>
          <CharString index="40">
            94 746 687 rmoveto
            -202 -130 98 183 200 178 153 239 hvcurveto
            360 hlineto
            -135 -634 rlineto
            -338 -121 rmoveto
            -1 4 5 0 5 hhcurveto
            298 hlineto
            -120 -565 -12 callsubr
            -538 hlineto
            -327 -219 -234 -261 -179 109 -133 178 -49 hvcurveto
            -536 -587 rlineto
            178 hlineto
            return
          </CharString>
          <CharString index="41">
            792 hlineto
            24 111 rlineto
            -620 hlineto
            1 4 793 824 23 101 rlineto
            -789 hlineto
            -25 -111 rlineto
            620 hlineto
            -1 -4 -796 -826 rlineto
            return
          </CharString>
          <CharString index="42">
            rmoveto
            9 26 31 5 33 hhcurveto
            60 35 -28 -44 -50 -43 -37 -67 -15 hvcurveto
            36 -67 rlineto
            112 27 66 66 87 vvcurveto
            85 -70 56 -109 -30 -42 -7 -9 -19 vhcurveto
            endchar
          </CharString>
          <CharString index="43">
            rmoveto
            -103 hlineto
            -337 -294 53 callsubr
            238 209 rlineto
            5 hlineto
            149 -209 74 callsubr
          </CharString>
          <CharString index="44">
            rmoveto
            15 28 40 9 36 hhcurveto
            50 34 -29 -41 -49 -38 -45 -75 -24 hvcurveto
            36 -68 rlineto
            110 33 73 79 94 vvcurveto
            77 -69 57 -91 -47 -44 -10 -14 -25 vhcurveto
            endchar
          </CharString>
          <CharString index="45">
            1051 hlineto
            26 123 rlineto
            -865 hlineto
            1 4 1111 1216 21 100 rlineto
            -1010 hlineto
            -27 -123 rlineto
            826 -4 hlineto
            -1113 -1217 rlineto
            return
          </CharString>
          <CharString index="46">
            34 callsubr
            -137 hlineto
            -1093 -1207 rlineto
            -12 hlineto
            257 1207 rlineto
            -138 -98 callgsubr
            138 hlineto
            1092 1206 rlineto
            12 hlineto
            return
          </CharString>
          <CharString index="47">
            110 946 hmoveto
            -54 callgsubr
            -634 -462 rmoveto
            134 75 -67 -114 -152 -118 -134 -192 hvcurveto
            -214 hlineto
            128 callsubr
            -257 -578 rmoveto
            349 hlineto
            285 181 178 235 163 -117 112 -202 hvcurveto
            -216 hlineto
            75 352 -64 callgsubr
            return
          </CharString>
          <CharString index="48">
            -77 callgsubr
            endchar
          </CharString>
          <CharString index="49">
            rmoveto
            67 -44 59 -75 24 vhcurveto
            1 3 rlineto
            98 15 62 70 87 vvcurveto
            96 -100 74 -131 -144 -107 -82 -110 -55 35 -52 61 -21 vhcurveto
            -1 -3 rlineto
            -116 -18 -77 -78 -101 vvcurveto
            -108 106 -77 152 162 118 88 122 vhcurveto
            -275 -119 rmoveto
            -80 -53 43 64 72 65 54 83 78 57 -45 -61 -73 -64 -54 -86 hvcurveto
            66 319 rmoveto
            -67 -47 38 54 65 57 50 72 66 48 -39 -55 -63 -57 -50 -72 hvcurveto
            endchar
          </CharString>
          <CharString index="50">
            rmoveto
            5 12 3 20 23 vvcurveto
            132 -112 89 -147 -186 -130 -107 -169 -31 vhcurveto
            99 hlineto
            116 21 96 74 116 hhcurveto
            105 68 -59 -92 -16 -3 -16 -3 -7 hvcurveto
            endchar
          </CharString>
          <CharString index="51">
            -631 rlineto
            -175 -38 -139 -133 -181 hhcurveto
            -155 -84 77 142 27 6 49 8 38 hvcurveto
            129 606 -64 callgsubr
            -132 -627 rlineto
            -8 -41 -6 -54 -38 vvcurveto
            -167 126 -130 202 165 134 90 98 60 vhcurveto
            return
          </CharString>
          <CharString index="52">
            177 hlineto
            548 615 rlineto
            6 hlineto
            291 -615 rlineto
            156 hlineto
            -344 712 660 731 rlineto
            -177 hlineto
            -548 -614 rlineto
            -5 hlineto
            -291 614 113 callsubr
            345 -712 rlineto
            return
          </CharString>
          <CharString index="53">
            753 831 rlineto
            8 hlineto
            -177 -831 58 callsubr
            -51 callsubr
            -753 -830 rlineto
            -8 hlineto
            177 830 -21 callsubr
            return
          </CharString>
          <CharString index="54">
            rlineto
            -139 100 callsubr
            return
          </CharString>
          <CharString index="55">
            hmoveto
            -50 callgsubr
            return
          </CharString>
          <CharString index="56">
            63 callsubr
            -134 hlineto
            return
          </CharString>
          <CharString index="57">
            rmoveto
            4 107 0 3 hhcurveto
            2 vlineto
            68 14 53 45 66 hhcurveto
            65 46 -39 -56 -53 -31 -36 -132 -106 hvcurveto
            -266 -216 -19 -89 rlineto
            485 hlineto
            20 98 rlineto
            -316 3 hlineto
            174 142 rlineto
            159 127 48 55 86 vvcurveto
            103 -95 77 -127 -138 -107 -87 -124 -13 vhcurveto
            endchar
          </CharString>
          <CharString index="58">
            rmoveto
            -115 88 -89 117 78 68 37 62 38 vhcurveto
            2 hlineto
            -155 -25 -75 -92 -99 hhcurveto
            -65 -45 38 58 -7 hvcurveto
            -120 hlineto
            -112 3 96 -82 132 hhcurveto
            96 83 44 79 58 hvcurveto
            61 80 35 113 128 vvcurveto
            162 -95 99 -153 -154 -117 -107 -148 vhcurveto
            398 37 rmoveto
            -85 -68 -66 -86 -71 -54 51 70 86 65 65 85 75 54 -50 -71 vhcurveto
            endchar
          </CharString>
          <CharString index="59">
            rmoveto
            13 32 35 7 35 hhcurveto
            49 32 -26 -39 -45 -48 -50 -61 -20 hvcurveto
            43 -58 rlineto
            92 28 71 84 84 vvcurveto
            76 -59 47 -95 -38 -47 -10 -13 -24 vhcurveto
            -48 -279 -81 callsubr
            endchar
          </CharString>
          <CharString index="60">
            rmoveto
            50 42 41 50 51 -42 40 -50 -49 -42 -40 -51 -50 42 -41 49 hvcurveto
            341 hmoveto
            49 42 41 50 51 -42 40 -49 -50 -42 -40 -51 -50 42 -41 50 hvcurveto
            return
          </CharString>
          <CharString index="61">
            rmoveto
            99 84 84 134 26 hvcurveto
            -91 hlineto
            -82 -18 -42 -50 -48 -84 -16 150 -128 hhcurveto
            -103 -82 -80 -137 -26 hvcurveto
            92 hlineto
            79 14 45 52 49 83 16 -150 130 hhcurveto
            return
          </CharString>
          <CharString index="62">
            710 rmoveto
            8 hlineto
            -150 -710 rlineto
            136 hlineto
            151 708 rlineto
            9 hlineto
            529 -708 rlineto
            159 hlineto
            -548 730 825 713 rlineto
            -179 hlineto
            -773 -670 rlineto
            -9 hlineto
            143 670 59 callsubr
            -143 -668 rlineto
            -8 hlineto
            -488 668 113 callsubr
            505 -681 -895 -762 rlineto
            188 hlineto
            return
          </CharString>
          <CharString index="63">
            hmoveto
            -43 callgsubr
            return
          </CharString>
          <CharString index="64">
            1327 rmoveto
            -163 -766 rlineto
            -525 hlineto
            527 766 rlineto
            -122 -1327 rmoveto
            812 0 callgsubr
            -672 hlineto
            116 547 rlineto
            636 hlineto
            26 122 rlineto
            -635 hlineto
            111 526 rlineto
            672 -30 callsubr
            -1067 hlineto
            -985 -25 callsubr
            149 hlineto
            301 443 rlineto
            578 hlineto
            return
          </CharString>
          <CharString index="65">
            1443 return
          </CharString>
          <CharString index="66">
            rmoveto
            100 81 72 124 19 hvcurveto
            -92 hlineto
            -71 -14 -36 -37 -48 -81 -36 122 -119 hhcurveto
            -102 -79 -68 -126 -20 hvcurveto
            92 hlineto
            69 10 40 38 49 80 36 -123 120 hhcurveto
            -207 -52 rmoveto
            -325 -234 92 callsubr
            227 163 rlineto
            5 hlineto
            158 -163 rlineto
            129 hlineto
            -226 234 rlineto
            endchar
          </CharString>
          <CharString index="67">
            -111 892 1040 rmoveto
            9 -71 6 -69 -63 vvcurveto
            -446 -166 -290 -266 -138 -70 72 123 49 5 46 23 108 vhcurveto
            115 541 -64 callgsubr
            -130 -616 rlineto
            -9 -41 -7 -51 -51 vvcurveto
            -183 123 -115 210 359 219 325 520 80 -6 74 -11 58 vhcurveto
            return
          </CharString>
          <CharString index="68">
            rmoveto
            170 138 106 152 36 hvcurveto
            -106 hlineto
            -103 -27 -91 -67 -109 hhcurveto
            -105 -68 59 93 5 0 7 1 6 hvcurveto
            -93 hlineto
            -2 -11 0 -13 -10 vvcurveto
            -134 98 -90 158 vhcurveto
            endchar
          </CharString>
          <CharString index="69">
            rmoveto
            -49 -39 -39 -49 -49 39 -39 49 47 40 39 48 callsubr
            -47 hvcurveto
            544 249 91 callsubr
            617 hlineto
            -196 -158 rmoveto
            51 callgsubr
            48 40 39 48 callsubr
            -48 hvcurveto
            endchar
          </CharString>
          <CharString index="70">
            -47 callsubr
            182 459 -72 callgsubr
          </CharString>
          <CharString index="71" raw="1">
            15f721f9 33560af7 2bf95605 9306f8e4
            fd5605f7 3d06fd1c f99d823b fa2df97e
            05fb5106 fdc9fd33 050b 
          </CharString>
          <CharString index="72" raw="1">
            4c1d0e   
          </CharString>
          <CharString index="73">
            4 callgsubr
            103 484 rlineto
            564 hlineto
            -103 -484 rlineto
            -54 callgsubr
            -95 -445 rlineto
            -563 112 callgsubr
            -135 hlineto
            endchar
          </CharString>
          <CharString index="74" raw="1">
            1c04c115 f88f069f eb05fc8f 06fb381c
            fadf1599 1d  
          </CharString>
          <CharString index="75">
            rmoveto
            -534 -384 -376 -525 -458 331 -317 478 73 82 9 13 54 hvcurveto
            21 102 rlineto
            -14 -38 -95 -11 -84 hhcurveto
            -426 -286 272 405 457 342 344 455 400 262 -221 -340 -276 -142 -217 -179 -70 -43 37 61 13 1 18 5 21 hvcurveto
            119 549 rlineto
            -121 hlineto
            -31 -147 rlineto
            -12 hlineto
            105 -19 -107 77 -125 hhcurveto
            -232 -182 -217 -278 -205 123 -140 182 116 104 59 97 56 hvcurveto
            12 -1 rlineto
            -4 -1 -4 -4 vvcurveto
            -84 8 84 -59 111 hhcurveto
            260 190 256 348 389 -309 266 -449 hvcurveto
            146 -766 rmoveto
            -210 -138 -175 -166 -125 -80 95 151 212 132 165 169 127 81 -93 -145 vhcurveto
            endchar
          </CharString>
          <CharString index="76">
            -134 hlineto
            return
          </CharString>
          <CharString index="77">
            hlineto
            27 124 rlineto
            return
          </CharString>
          <CharString index="78">
            rmoveto
            112 hlineto
            -164 82 callgsubr
            endchar
          </CharString>
          <CharString index="79">
            -635 409 1040 rmoveto
            -133 hlineto
            -162 -760 rlineto
            -7 -34 -3 -29 -26 vvcurveto
            -125 92 -75 148 34 27 4 6 37 vhcurveto
            97 callsubr
            -4 -21 -27 -2 -28 hhcurveto
            -94 -52 43 78 25 4 29 7 34 hvcurveto
            return
          </CharString>
          <CharString index="80">
            hlineto
            -58 callgsubr
            return
          </CharString>
          <CharString index="81">
            rmoveto
            96 callgsubr
            188 147 188 257 159 -92 102 -146 -189 -146 -188 -257 vhcurveto
            241 -163 rmoveto
            -71 -43 60 96 192 96 161 109 70 44 -60 -96 -191 -97 -162 -108 hvcurveto
            -188 -849 110 callgsubr
            -656 -691 -714 -752 rlineto
            849 247 -53 callgsubr
          </CharString>
          <CharString index="82">
            -1443 rlineto
            return
          </CharString>
          <CharString index="83" raw="1">
            15eff867 9a0af6f8 8f059206 f822fc8f
            05f73906 fc5cf8df 8e3ff91a f8a505fb
            4506fcc9 fc67050b  
          </CharString>
          <CharString index="84">
            rmoveto
            43 callgsubr
          </CharString>
          <CharString index="85">
            rmoveto
            117 callgsubr
            139 hlineto
            137 643 rlineto
            64 75 151 86 187 hhcurveto
            238 115 -144 -239 -51 hvcurveto
            -87 -410 80 callgsubr
            88 412 rlineto
            290 61 -142 218 -334 hhcurveto
            -169 -141 -67 -62 -87 hvcurveto
            -12 hlineto
            139 652 rlineto
            endchar
          </CharString>
          <CharString index="86">
            rlineto
            -134 5 callgsubr
            return
          </CharString>
          <CharString index="87">
            1040 rmoveto
            -133 hlineto
            -139 -653 rlineto
            -170 -36 -128 -116 -136 hhcurveto
            -129 -79 88 115 31 5 40 8 37 hvcurveto
            133 628 rlineto
            -133 70 callgsubr
            -181 -38 -126 -109 -138 hhcurveto
            -128 -79 88 115 31 5 40 8 37 hvcurveto
            133 628 70 callsubr
            -138 -651 rlineto
            -8 -39 -5 -43 -39 vvcurveto
            -167 125 -118 171 168 121 100 113 60 vhcurveto
            3 hlineto
            -114 19 107 -99 155 hhcurveto
            138 115 84 114 56 hvcurveto
            4 hlineto
            -38 -181 57 callgsubr
            endchar
          </CharString>
          <CharString index="88">
            -22 callgsubr
            -715 hlineto
            return
          </CharString>
          <CharString index="89">
            43 481 -17 rmoveto
            148 143 90 132 74 hvcurveto
            4 hlineto
            -3 -18 -5 -22 -11 vvcurveto
            -116 59 -42 115 30 25 3 7 23 vhcurveto
            24 111 rlineto
            -4 -16 -17 -2 -21 hhcurveto
            -62 -24 21 50 22 5 28 11 54 hvcurveto
            161 754 rlineto
            -128 hlineto
            -55 -256 rlineto
            -5 hlineto
            150 -25 -120 123 -188 hhcurveto
            -293 -227 -282 -359 -262 146 -171 221 hvcurveto
            34 116 rmoveto
            -162 -106 128 195 287 161 231 225 165 118 -126 -197 -282 -180 -236 -221 hvcurveto
            return
          </CharString>
          <CharString index="90">
            179 -130 138 -169 -88 -87 -39 -64 -55 vhcurveto
            -16 hlineto
            172 39 172 122 201 hhcurveto
            7 16 -1 -1 5 hvcurveto
            16 96 rlineto
            2 -17 -11 0 -22 hhcurveto
            -310 -227 -219 -306 -238 143 -166 206 188 139 138 187 hvcurveto
            return
          </CharString>
          <CharString index="91">
            333 288 rlineto
            return
          </CharString>
          <CharString index="92">
            -221 429 -18 rmoveto
            237 169 133 201 57 130 callgsubr
            -123 -38 -116 -94 -157 hhcurveto
            -140 -94 76 109 1 hvcurveto
            115 1 113 80 169 hhcurveto
            160 hlineto
            22 109 rlineto
            -150 hlineto
            -126 -83 63 92 1 hvcurveto
            118 111 80 146 150 89 -86 -111 1 vhcurveto
            125 hlineto
            174 -135 138 -220 -227 -166 -128 -188 -3 vhcurveto
            -1 -96 59 -70 89 -28 -2 -7 rcurveline
            -148 -24 -108 -95 -1 -145 rrcurveto
            -172 -1 147 -121 207 hhcurveto
            return
          </CharString>
          <CharString index="93">
            -180 130 -138 169 87 88 39 64 55 vhcurveto
            16 hlineto
            -172 -40 -171 -121 -201 -7 -16 1 -5 hhcurveto
            -16 -96 rlineto
            -2 17 15 0 18 hhcurveto
            311 226 220 306 237 -143 166 -206 -187 -140 -138 -186 hvcurveto
            return
          </CharString>
          <CharString index="94">
            rmoveto
            -50 -230 rlineto
            -9 -41 -4 -37 -34 vvcurveto
            -181 135 -56 130 vhcurveto
            42 hlineto
            22 106 rlineto
            -38 hlineto
            -119 -43 60 93 30 5 34 7 35 hvcurveto
            53 245 rlineto
            7 35 5 31 27 vvcurveto
            99 -55 47 -124 23 vhcurveto
            3 16 149 15 90 59 34 162 rlinecurve
            62 292 rlineto
            172 37 63 59 146 hhcurveto
            45 hlineto
            23 109 rlineto
            -51 hlineto
            -214 -118 -78 -234 -50 hvcurveto
            -59 -274 rlineto
            -162 -35 -71 -48 -158 hhcurveto
            -34 -157 rlineto
            122 -3 63 -22 -102 vvcurveto
            -25 -4 -30 -7 -35 vhcurveto
            endchar
          </CharString>
          <CharString index="95">
            rlineto
            139 -27 callsubr
            return
          </CharString>
          <CharString index="96">
            rmoveto
            86 callsubr
            -650 5 callgsubr
            134 106 callgsubr
            return
          </CharString>
          <CharString index="97">
            rmoveto
            -49 -39 -39 -49 -49 39 -39 49 47 40 39 48 callsubr
            -47 hvcurveto
            328 hmoveto
            51 callgsubr
            48 40 39 48 callsubr
            -48 hvcurveto
            endchar
          </CharString>
          <CharString index="98">
            34 callgsubr
            -134 hlineto
            return
          </CharString>
          <CharString index="99">
            124 callgsubr
            -139 -98 callgsubr
            return
          </CharString>
          <CharString index="100">
            242 1346 411 rmoveto
            -140 hlineto
            -183 -71 -170 -131 -227 hhcurveto
            -296 -160 228 352 45 hvcurveto
            689 0 callgsubr
            -693 hlineto
            324 76 228 221 283 hhcurveto
            218 168 -139 -205 6 hvcurveto
            139 hlineto
            4 0 13 -1 6 vhcurveto
            264 -11 -233 184 -270 hhcurveto
            -407 -287 -317 -431 -58 hvcurveto
            -476 -79 229 -279 374 hhcurveto
            299 234 167 274 89 hvcurveto
            return
          </CharString>
          <CharString index="101">
            rmoveto
            -160 298 rlineto
            -119 hlineto
            176 -298 rlineto
            return
          </CharString>
          <CharString index="102">
            rmoveto
            144 105 121 168 23 hvcurveto
            -124 hlineto
            -103 -18 -50 -70 -79 -115 -52 208 -179 hhcurveto
            -145 -107 -123 -165 -22 hvcurveto
            126 hlineto
            103 17 50 69 78 116 51 -208 181 hhcurveto
            -110 -410 rmoveto
            144 105 121 167 23 hvcurveto
            -124 hlineto
            -103 -18 -50 -70 -78 -116 -52 208 -179 hhcurveto
            -144 -108 -123 -165 -21 hvcurveto
            126 hlineto
            104 17 49 68 79 115 51 -207 181 hhcurveto
            endchar
          </CharString>
          <CharString index="103">
            rmoveto
            197 hlineto
            22 101 rlineto
            -198 hlineto
            43 201 rlineto
            -108 hlineto
            -42 -201 rlineto
            -194 hlineto
            -22 -101 rlineto
            194 hlineto
            -43 -205 rlineto
            107 hlineto
            endchar
          </CharString>
          <CharString index="104">
            -85 callsubr
            endchar
          </CharString>
          <CharString index="105">
            -58 callgsubr
            -7 callgsubr
            return
          </CharString>
          <CharString index="106">
            -23 rmoveto
            307 222 225 300 260 -185 177 -256 -125 -127 -52 -82 -72 hvcurveto
            -4 hlineto
            160 515 rlineto
            674 hlineto
            27 123 rlineto
            -792 hlineto
            -242 -778 rlineto
            14 130 0 0 hvcurveto
            95 75 130 62 120 hhcurveto
            196 139 -131 -195 -229 -162 -166 -224 -196 -149 120 167 -9 hvcurveto
            2 -135 -4 vlineto
            -236 2 206 -173 276 hhcurveto
            endchar
          </CharString>
          <CharString index="107">
            536 0 callgsubr
            -373 6 hlineto
            291 143 182 293 327 vvcurveto
            341 -223 232 -355 -460 -304 -350 -453 -242 98 -174 186 -117 vhcurveto
            -6 -361 vlineto
            83 callgsubr
            521 hlineto
            33 154 rlineto
            -209 112 -102 170 229 vvcurveto
            383 242 292 365 279 176 -186 -273 -325 -182 -257 -307 -145 vhcurveto
            endchar
          </CharString>
          <CharString index="108">
            -127 981 301 rmoveto
            -131 hlineto
            -117 -47 -120 -85 -143 hhcurveto
            -178 -109 128 201 20 1 19 3 19 hvcurveto
            493 hlineto
            22 109 rlineto
            -499 hlineto
            202 51 145 143 182 hhcurveto
            156 101 -90 -120 19 hvcurveto
            130 hlineto
            177 -13 -145 150 -247 hhcurveto
            -311 -223 -281 -354 -257 148 -183 273 209 180 139 180 53 hvcurveto
            return
          </CharString>
          <CharString index="109">
            rmoveto
            48 40 39 48 callsubr
            -48 -49 -5 callgsubr
            49 hvcurveto
            return
          </CharString>
          <CharString index="110">
            1501 -68 callgsubr
          </CharString>
          <CharString index="111">
            hmoveto
            43 callgsubr
          </CharString>
          <CharString index="112">
            1146 124 callsubr
            199 297 rlineto
            -169 hlineto
            return
          </CharString>
          <CharString index="113">
            68 callgsubr
            396 rlineto
            -304 hlineto
            -26 -111 rlineto
            178 hlineto
            return
          </CharString>
          <CharString index="114">
            rmoveto
            334 288 rlineto
            -153 118 callgsubr
            -174 hmoveto
            -16 callsubr
            -152 118 callgsubr
            endchar
          </CharString>
          <CharString index="115">
            1055 rmoveto
            136 hlineto
            176 33 136 115 177 hhcurveto
            168 121 -106 -148 -131 -67 -90 -268 -230 hvcurveto
            -622 -531 -22 -110 rlineto
            953 0 callgsubr
            -752 hlineto
            1 4 495 423 rlineto
            315 270 79 109 176 vvcurveto
            206 -180 154 -239 -259 -197 -166 -245 -34 vhcurveto
            endchar
          </CharString>
          <CharString index="116">
            1524 -59 callsubr
          </CharString>
          <CharString index="117">
            rmoveto
            242 177 170 253 177 -122 112 -200 hvcurveto
            -222 hlineto
            71 340 70 callsubr
            -137 -644 rlineto
            -8 -37 -4 -34 -33 vvcurveto
            -179 126 -125 210 vhcurveto
            68 601 rmoveto
            138 80 -72 -120 -167 -112 -124 -164 -133 -79 80 119 25 3 26 6 28 hvcurveto
            44 205 rlineto
            endchar
          </CharString>
          <CharString index="118">
            -94 callgsubr
            endchar
          </CharString>
          <CharString index="119">
            -104 callsubr
            endchar
          </CharString>
          <CharString index="120">
            29 callgsubr
            711 -30 callsubr
            -851 -98 callgsubr
            return
          </CharString>
          <CharString index="121" raw="1">
            f781e1f9 3715f918 8b1dfd17 06f7a6f9
            18ac1d   
          </CharString>
          <CharString index="122">
            -21 callsubr
            4 callgsubr
            return
          </CharString>
          <CharString index="123">
            4 callgsubr
            63 callsubr
            return
          </CharString>
          <CharString index="124">
            rmoveto
            30 -80 15 -87 -92 vvcurveto
            -211 -94 -203 -133 -131 vhcurveto
            126 hlineto
            142 137 82 200 199 vvcurveto
            97 -22 105 -34 66 vhcurveto
            endchar
          </CharString>
          <CharString index="125">
            hmoveto
            140 655 rlineto
            659 hlineto
            26 122 rlineto
            -659 hlineto
            115 542 rlineto
            718 -30 callsubr
            -858 -98 callgsubr
            return
          </CharString>
          <CharString index="126">
            rmoveto
            116 hlineto
            310 223 rlineto
            -148 hlineto
            -212 -152 rlineto
            -5 hlineto
            -149 152 rlineto
            -129 hlineto
            79 -288 -10 callsubr
          </CharString>
          <CharString index="127">
            -73 callsubr
            endchar
          </CharString>
          <CharString index="128">
            429 315 385 481 375 -235 246 -353 return
          </CharString>
          <CharString index="129">
            644 hmoveto
            844 -24 callgsubr
            -154 hlineto
            -724 -1261 rlineto
            -4 hlineto
            -200 1261 66 callsubr
            231 -25 callsubr
            return
          </CharString>
          <CharString index="130">
            -741 219 hmoveto
            -2 callsubr
            -307 -1443 rlineto
            259 1612 -104 callgsubr
          </CharString>
          <CharString index="131">
            rmoveto
            55 46 45 55 56 -46 45 -55 -56 -45 -45 -56 -55 45 -45 56 hvcurveto
            375 409 91 callsubr
            616 hlineto
            endchar
          </CharString>
          <CharString index="132">
            rmoveto
            -2 callgsubr
            return
          </CharString>
          <CharString index="133">
            rmoveto
            102 79 76 105 1 hvcurveto
            102 -80 67 -97 -101 -80 -76 -105 -102 80 -67 96 vhcurveto
            70 vmoveto
            -59 -44 41 60 65 45 44 63 60 43 -41 -60 1 hvcurveto
            -65 -45 -44 -64 vhcurveto
            160 511 rmoveto
            -161 -168 rlineto
            118 hlineto
            175 168 rlineto
            endchar
          </CharString>
          <CharString index="134">
            rlineto
            131 hlineto
            66 313 rlineto
            98 76 121 61 124 hhcurveto
            138 82 -90 -151 -228 -164 -179 -215 -52 -45 3 5 -20 hvcurveto
            -23 -110 rlineto
            -8 22 50 -6 56 hhcurveto
            301 229 230 309 209 -126 135 return
          </CharString>
          <CharString index="135">
            32 callgsubr
            -261 -1 rmoveto
            -2 -11 -1 -13 -13 vvcurveto
            -131 100 -90 157 171 139 107 151 34 vhcurveto
            -107 hlineto
            -102 -25 -92 -68 -109 hhcurveto
            -105 -68 59 90 8 0 7 1 6 hvcurveto
            endchar
          </CharString>
          <CharString index="136">
            rlineto
            -134 -98 callgsubr
            return
          </CharString>
          <CharString index="137">
            rmoveto
            24 113 rlineto
            -1002 hlineto
            -24 -113 rlineto
            580 299 rmoveto
            60 47 45 62 62 -47 44 -60 -59 -47 -44 -62 -62 47 -45 59 hvcurveto
            -150 -706 rmoveto
            60 47 46 61 62 -47 45 -60 -60 -47 -45 -62 -61 47 -46 60 hvcurveto
            endchar
          </CharString>
          <CharString index="138">
            135 hlineto
            414 578 21 100 rlineto
            -472 hlineto
            -21 -98 rlineto
            341 -3 hlineto
            endchar
          </CharString>
          <CharString index="139">
            417 -47 callgsubr
            endchar
          </CharString>
          <CharString index="140">
            668 704 701 739 82 callsubr
            -657 -691 -714 -752 rlineto
            return
          </CharString>
          <CharString index="141">
            137 -27 callsubr
            return
          </CharString>
          <CharString index="142">
            rmoveto
            -160 300 rlineto
            -119 hlineto
            175 -300 rlineto
            278 -157 -72 callgsubr
          </CharString>
          <CharString index="143">
            rmoveto
            24 114 rlineto
            -960 hlineto
            -24 -114 rlineto
            658 559 rmoveto
            421 hlineto
            23 105 rlineto
            -422 hlineto
            67 309 rlineto
            -118 hlineto
            -66 -309 rlineto
            -422 hlineto
            -22 -105 rlineto
            421 hlineto
            -67 -317 rlineto
            117 hlineto
            endchar
          </CharString>
          <CharString index="144">
            -221 -1040 rlineto
            return
          </CharString>
          <CharString index="145">
            hmoveto
            -55 callsubr
            endchar
          </CharString>
          <CharString index="146">
            -232 -488 rlineto
            124 hlineto
            246 488 rlineto
            return
          </CharString>
          <CharString index="147">
            rmoveto
            20 92 rlineto
            -616 128 callgsubr
            return
          </CharString>
          <CharString index="148">
            113 callgsubr
            335 285 45 callgsubr
            -239 -204 rlineto
            -5 hlineto
            -152 204 rlineto
            -121 hlineto
            357 79 rmoveto
            55 48 46 57 55 -48 47 -55 -56 -47 -47 -55 -57 47 -46 56 hvcurveto
            endchar
          </CharString>
          <CharString index="149">
            rmoveto
            120 hlineto
            303 300 97 callgsubr
            23 -457 -72 callgsubr
          </CharString>
          <CharString index="150">
            rmoveto
            52 42 41 53 52 -42 41 -52 -52 -42 -41 -52 -53 42 -41 52 hvcurveto
            return
          </CharString>
          <CharString index="151">
            rmoveto
            -141 211 rlineto
            -127 hlineto
            160 -211 rlineto
            return
          </CharString>
          <CharString index="152">
            rmoveto
            60 -157 36 -230 -256 vvcurveto
            -415 -172 -399 -295 -291 vhcurveto
            148 hlineto
            268 262 184 402 435 vvcurveto
            235 -40 266 -69 148 vhcurveto
            endchar
          </CharString>
          <CharString index="153">
            rmoveto
            -59 156 -36 231 256 vvcurveto
            415 172 399 295 291 vhcurveto
            -148 hlineto
            -268 -263 -184 -401 -435 vvcurveto
            -235 40 -267 69 -147 vhcurveto
            endchar
          </CharString>
          <CharString index="154">
            -302 rlineto
            endchar
          </CharString>
          <CharString index="155">
            49 49 -40 39 return
          </CharString>
          <CharString index="156" raw="1">
            980a0e   
          </CharString>
          <CharString index="157">
            396 rlineto
            -303 hlineto
            -26 -111 rlineto
            178 hlineto
            return
          </CharString>
          <CharString index="158">
            rmoveto
            27 114 rlineto
            -972 hlineto
            -27 -114 rlineto
            94 410 rmoveto
            -27 -121 1047 322 27 114 -897 325 -29 -120 725 -250 -4 -18 rlineto
            endchar
          </CharString>
          <CharString index="159">
            -94 -160 -208 -147 -193 -218 -54 -45 7 6 -16 hvcurveto
            -27 -123 rlineto
            -7 15 47 -8 75 hhcurveto
            297 212 248 289 225 -139 142 return
          </CharString>
          <CharString index="160">
            rlineto
            140 hlineto
            return
          </CharString>
          <CharString index="161">
            rmoveto
            227 482 45 callgsubr
            -199 -482 rlineto
            endchar
          </CharString>
          <CharString index="162">
            rmoveto
            -84 callgsubr
            endchar
          </CharString>
          <CharString index="163">
            rlineto
            16 callsubr
            return
          </CharString>
          <CharString index="164">
            126 callsubr
            -136 hlineto
            -65 -34 -345 -212 -36 -21 -33 -159 rcurveline
            52 30 345 213 43 22 rrcurveto
            4 hlineto
            endchar
          </CharString>
          <CharString index="165">
            rlineto
            133 hlineto
            return
          </CharString>
          <CharString index="166">
            rlineto
            -136 hlineto
            return
          </CharString>
          <CharString index="167">
            hlineto
            135 631 rlineto
            return
          </CharString>
          <CharString index="168">
            rmoveto
            -27 callgsubr
            endchar
          </CharString>
          <CharString index="169">
            -16 -2 -16 -15 vvcurveto
            -106 85 -65 144 165 123 85 133 28 vhcurveto
            return
          </CharString>
          <CharString index="170">
            221 1040 rlineto
            return
          </CharString>
          <CharString index="171">
            hmoveto
            48 40 39 48 callsubr
            -48 return
          </CharString>
          <CharString index="172">
            4 hlineto
            -38 -171 57 callgsubr
            return
          </CharString>
          <CharString index="173">
            rlineto
            -132 hlineto
            return
          </CharString>
          <CharString index="174">
            -25 callsubr
            4 callgsubr
            return
          </CharString>
          <CharString index="175">
            628 149 rmoveto
            -271 405 1 11 436 418 rlineto
            -163 hlineto
            -425 -406 -3 -17 277 -411 rlineto
            return
          </CharString>
          <CharString index="176">
            rmoveto
            25 118 rlineto
            -967 hlineto
            -25 -118 rlineto
            return
          </CharString>
          <CharString index="177">
            rlineto
            -133 hlineto
            return
          </CharString>
          <CharString index="178">
            rmoveto
            625 -434 -2 -7 -812 -442 -31 -147 980 529 23 109 -755 532 rlineto
            endchar
          </CharString>
          <CharString index="179">
            rmoveto
            -625 434 1 7 812 442 32 147 -981 -529 -23 -109 755 -532 rlineto
            endchar
          </CharString>
          <CharString index="180">
            -7 callgsubr
            -189 -894 -9 return
          </CharString>
          <CharString index="181">
            rlineto
            121 hlineto
            endchar
          </CharString>
          <CharString index="182">
            vvcurveto
            -87 71 -59 106 40 42 7 11 16 vhcurveto
            return
          </CharString>
          <CharString index="183">
            94 callsubr
            -7 callgsubr
            return
          </CharString>
          <CharString index="184">
            -40 -8 -37 hvcurveto
            -134 -628 rlineto
            return
          </CharString>
          <CharString index="185">
            rmoveto
            87 409 129 callsubr
            29 callgsubr
            -142 hlineto
            -280 -1318 rlineto
            -816 hlineto
            return
          </CharString>
          <CharString index="186">
            rmoveto
            107 callsubr
          </CharString>
          <CharString index="187">
            133 hlineto
            135 return
          </CharString>
          <CharString index="188">
            -1 65 callgsubr
            return
          </CharString>
          <CharString index="189">
            rlineto
            -145 hlineto
            return
          </CharString>
          <CharString index="190" raw="1">
            fbb115f7 1506f73e f7f794b4 050b
          </CharString>
          <CharString index="191">
            -116 130 205 vhcurveto
            return
          </CharString>
          <CharString index="192">
            hlineto
            -138 -649 return
          </CharString>
          <CharString index="193">
            23 111 rlineto
            return
          </CharString>
          <CharString index="194">
            -731 224 93 callgsubr
          </CharString>
          <CharString index="195">
            rlineto
            -138 hlineto
            return
          </CharString>
          <CharString index="196">
            39 64 9 1 9 2 10 hvcurveto
            -211 127 callgsubr
            return
          </CharString>
          <CharString index="197">
            rmoveto
            -954 hlineto
            -24 -114 rlineto
            840 hlineto
            -90 -418 rlineto
            115 hlineto
            endchar
          </CharString>
          <CharString index="198">
            rmoveto
            -617 hlineto
            -20 -91 rlineto
            return
          </CharString>
          <CharString index="199">
            rlineto
            148 hlineto
            return
          </CharString>
          <CharString index="200">
            rmoveto
            372 1748 rlineto
            -113 hlineto
            -373 -1748 rlineto
            endchar
          </CharString>
          <CharString index="201">
            84 215 45 hvcurveto
            15 71 rlineto
            return
          </CharString>
          <CharString index="202">
            hlineto
            132 444 rlineto
            return
          </CharString>
          <CharString index="203">
            87 409 rlineto
            return
          </CharString>
          <CharString index="204">
            24 112 rlineto
            return
          </CharString>
          <CharString index="205">
            rlineto
            -141 hlineto
            return
          </CharString>
          <CharString index="206">
            16 15 vvcurveto
            105 -85 66 -146 -167 -123 -86 -132 -28 vhcurveto
            return
          </CharString>
          <CharString index="207">
            -98 callgsubr
            139 hlineto
            return
          </CharString>
          <CharString index="208" raw="1">
            fbd8bbf8 7e15f91e 06ec0afd 1f060b
          </CharString>
          <CharString index="209">
            591 1599 40 callsubr
            return
          </CharString>
          <CharString index="210">
            rmoveto
            2048 hlineto
            25 116 rlineto
            -2048 hlineto
            endchar
          </CharString>
          <CharString index="211">
            rmoveto
            1221 hlineto
            25 116 rlineto
            -1221 hlineto
            endchar
          </CharString>
          <CharString index="212">
            hmoveto
            16 callsubr
            return
          </CharString>
          <CharString index="213">
            -1236 rlineto
            return
          </CharString>
          <CharString index="214">
            -9 callsubr
            endchar
          </CharString>
          <CharString index="215">
            hvcurveto
            -7 callgsubr
            return
          </CharString>
          <CharString index="216">
            519 rlineto
            733 -30 callsubr
            -873 hlineto
            return
          </CharString>
          <CharString index="217">
            rmoveto
            1847 hlineto
            66 308 rlineto
            -1848 hlineto
            return
          </CharString>
          <CharString index="218">
            132 hlineto
            130 return
          </CharString>
          <CharString index="219">
            hhcurveto
            -428 -317 return
          </CharString>
          <CharString index="220">
            rlineto
            -156 hlineto
            return
          </CharString>
          <CharString index="221">
            41 rlineto
            -306 hlineto
            -24 -111 rlineto
            161 hlineto
            return
          </CharString>
          <CharString index="222">
            rmoveto
            120 562 -498 -281 rlineto
            endchar
          </CharString>
          <CharString index="223">
            rmoveto
            -179 477 -383 -477 rlineto
            endchar
          </CharString>
          <CharString index="224" raw="1">
            c50af700 0b  
          </CharString>
          <CharString index="225" raw="1">
            59fb0f1b 75060b  
          </CharString>
          <CharString index="226">
            rmoveto
            117 hlineto
            return
          </CharString>
          <CharString index="227">
            568 rlineto
            96 70 166 102 180 hhcurveto
            return
          </CharString>
          <CharString index="228">
            24 115 rlineto
            -1044 hlineto
            -25 -115 rlineto
            return
          </CharString>
          <CharString index="229">
            48 callsubr
            -48 -48 -39 -39 -49 -49 39 return
          </CharString>
          <CharString index="230">
            133 hlineto
            139 return
          </CharString>
          <CharString index="231">
            rmoveto
            111 hlineto
            return
          </CharString>
          <CharString index="232">
            -285 rmoveto
            127 hlineto
            85 397 rlineto
            return
          </CharString>
          <CharString index="233">
            hmoveto
            34 callsubr
            return
          </CharString>
          <CharString index="234">
            hlineto
            -61 -285 rlineto
            endchar
          </CharString>
          <CharString index="235">
            100 467 rlineto
            return
          </CharString>
          <CharString index="236">
            rlineto
            -183 hlineto
            return
          </CharString>
        <CharString name=".notdef">
          894 -62 -494 110 callsubr
          26 119 rmoveto
          1847 hlineto
          65 308 rlineto
          -1847 hlineto
          26 120 rmoveto
          1847 hlineto
          65 307 rlineto
          -1847 hlineto
          25 120 rmoveto
          1848 hlineto
          65 307 rlineto
          -1847 hlineto
          25 120 rmoveto
          1848 hlineto
          65 308 rlineto
          -1847 hlineto
          25 119 110 callsubr
          endchar
        </CharString>
        <CharString name=".null">
          endchar
        </CharString>
        <CharString name="A">
          107 848 -102 callsubr
          endchar
        </CharString>
        <CharString name="AE">
          703 1172 -43 callsubr
          endchar
        </CharString>
        <CharString name="AEacute">
          703 1172 -43 callsubr
          477 1115 -83 callgsubr
        </CharString>
        <CharString name="AEmacron">
          703 1172 -43 callsubr
          756 1277 -74 callsubr
        </CharString>
        <CharString name="Aacute">
          107 848 -102 callsubr
          -18 1115 -83 callgsubr
        </CharString>
        <CharString name="Abreve">
          107 848 -102 callsubr
          -334 1379 -74 callgsubr
          endchar
        </CharString>
        <CharString name="Abreveacute">
          107 848 -102 callsubr
          -125 1362 rmoveto
          124 hlineto
          244 211 98 callsubr
          -183 -470 -39 callsubr
        </CharString>
        <CharString name="Abrevedotbelow">
          107 848 -102 callsubr
          -334 1379 -74 callgsubr
          -234 -2202 -102 callgsubr
        </CharString>
        <CharString name="Abrevegrave">
          107 848 -102 callsubr
          35 1362 28 callsubr
        </CharString>
        <CharString name="Abrevehookabove">
          107 848 -102 callsubr
          -196 1542 rmoveto
          8 27 32 6 34 hhcurveto
          63 36 -29 -44 -47 -41 -36 -61 -15 hvcurveto
          56 -62 rlineto
          92 30 55 64 79 vvcurveto
          83 -71 58 -108 -32 -43 -7 -8 -19 vhcurveto
          95 -519 -39 callsubr
        </CharString>
        <CharString name="Abrevetilde">
          107 848 -102 callsubr
          113 1386 rmoveto
          100 82 76 127 23 hvcurveto
          -94 hlineto
          -75 -15 -39 -40 -47 -87 -18 132 -126 hhcurveto
          -103 -81 -73 -129 -23 hvcurveto
          94 hlineto
          74 12 43 41 47 86 18 -133 128 hhcurveto
          -194 -283 -39 callsubr
        </CharString>
        <CharString name="Acaron">
          107 848 -102 callsubr
          -129 1115 -86 callgsubr
        </CharString>
        <CharString name="Acircumflex">
          107 848 -102 callsubr
          23 1409 -69 callgsubr
        </CharString>
        <CharString name="Acircumflexacute">
          10 callgsubr
          109 20 rmoveto
          125 26 callgsubr
          endchar
        </CharString>
        <CharString name="Acircumflexdotbelow">
          107 848 -102 callsubr
          23 1409 -77 callsubr
          -703 -1938 -102 callgsubr
        </CharString>
        <CharString name="Acircumflexgrave">
          10 callgsubr
          301 20 32 callgsubr
          endchar
        </CharString>
        <CharString name="Acircumflexhookabove">
          10 callgsubr
          50 148 rmoveto
          8 25 31 6 30 hhcurveto
          57 36 -27 -42 -44 -38 -32 -54 -16 hvcurveto
          49 -57 rlineto
          88 29 51 58 74 vvcurveto
          79 -66 52 -102 -32 -39 -7 -8 -17 vhcurveto
          endchar
        </CharString>
        <CharString name="Acircumflextilde">
          107 848 -102 callsubr
          109 1387 -41 callsubr
        </CharString>
        <CharString name="Acyrillic">
          117 853 -102 callsubr
          endchar
        </CharString>
        <CharString name="Adblgrave">
          107 848 -102 callsubr
          -277 1115 -33 callgsubr
        </CharString>
        <CharString name="Adieresis">
          107 848 -102 callsubr
          -224 1169 -104 callgsubr
        </CharString>
        <CharString name="Adieresismacron">
          107 848 -102 callsubr
          -227 1287 -38 callsubr
        </CharString>
        <CharString name="Adotaccent">
          107 848 -102 callsubr
          -49 1182 -102 callgsubr
        </CharString>
        <CharString name="Adotbelow">
          107 848 -102 callsubr
          -468 -823 -102 callgsubr
        </CharString>
        <CharString name="Adotmacron">
          107 848 -102 callsubr
          -58 1127 24 callsubr
        </CharString>
        <CharString name="Agrave">
          107 848 -102 callsubr
          -151 1115 -29 callsubr
        </CharString>
        <CharString name="Ahookabove">
          107 848 -102 callsubr
          -219 1316 -65 callsubr
        </CharString>
        <CharString name="Ainvertedbreve">
          107 848 -102 callsubr
          219 1103 -57 callsubr
        </CharString>
        <CharString name="Alphagreek">
          107 848 -102 callsubr
          endchar
        </CharString>
        <CharString name="Alphatonosgreek">
          107 848 -102 callsubr
          -640 703 124 callsubr
          199 74 callgsubr
        </CharString>
        <CharString name="Amacron">
          107 848 -102 callsubr
          262 1277 -74 callsubr
        </CharString>
        <CharString name="Aogonek">
          107 1102 -301 rmoveto
          -9 -18 -25 -4 -28 hhcurveto
          -64 -40 33 51 71 78 81 159 79 hvcurveto
          15 9 -232 1433 88 callsubr
          -842 -25 callsubr
          152 hlineto
          253 443 rlineto
          608 hlineto
          70 -436 rlineto
          -160 -81 -83 -94 -98 75 callsubr
          -236 1668 rmoveto
          4 hlineto
          113 -714 rlineto
          -526 hlineto
          endchar
        </CharString>
        <CharString name="Aring">
          107 848 -102 callsubr
          -49 1116 -89 callgsubr
        </CharString>
        <CharString name="Aringacute">
          107 848 -102 callsubr
          -57 1071 26 callsubr
        </CharString>
        <CharString name="Aringbelow">
          107 848 -102 callsubr
          -475 -919 -89 callgsubr
        </CharString>
        <CharString name="Atilde">
          107 848 -102 callsubr
          64 1106 -101 callgsubr
          endchar
        </CharString>
        <CharString name="B">
          102 644 -86 callsubr
          endchar
        </CharString>
        <CharString name="Bdotaccent">
          102 644 -86 callsubr
          211 1504 -102 callgsubr
        </CharString>
        <CharString name="Bdotbelow">
          102 644 -86 callsubr
          -149 -501 -102 callgsubr
        </CharString>
        <CharString name="Becyrillic">
          46 623 hmoveto
          327 219 228 256 220 -179 148 -267 hvcurveto
          -317 hlineto
          99 467 rlineto
          698 -30 callsubr
          -838 -98 callgsubr
          165 122 rmoveto
          130 607 rlineto
          316 hlineto
          202 129 -93 -172 -194 -177 -148 -240 hvcurveto
          endchar
        </CharString>
        <CharString name="Betagreek">
          102 644 -86 callsubr
          endchar
        </CharString>
        <CharString name="Blinebelow">
          102 644 -86 callsubr
          171 -363 -74 callsubr
        </CharString>
        <CharString name="C">
          228 1320 976 -95 callsubr
          endchar
        </CharString>
        <CharString name="Cacute">
          228 1320 976 -95 callsubr
          -313 583 -83 callgsubr
        </CharString>
        <CharString name="Ccaron">
          228 1320 976 -95 callsubr
          -425 583 -86 callgsubr
        </CharString>
        <CharString name="Ccedilla">
          228 1458 976 rmoveto
          6 0 3 -1 10 vhcurveto
          284 -14 -219 186 -314 hhcurveto
          -424 -311 -378 -496 -343 195 -232 308 -34 hvcurveto
          -79 -136 -14 -59 56 -1 rlineto
          102 -3 49 -26 -53 vvcurveto
          -56 -52 -31 -83 -54 -48 11 19 -43 vhcurveto
          -19 -90 rlineto
          -20 44 67 -13 62 hhcurveto
          138 94 74 114 94 -69 53 -118 1 hvcurveto
          71 118 274 10 220 165 80 258 rlinecurve
          -139 hlineto
          -193 -73 -171 -114 -213 hhcurveto
          -272 -173 191 302 424 248 318 344 233 164 -136 -210 14 hvcurveto
          1 -6 1 -6 -5 vvcurveto
          endchar
        </CharString>
        <CharString name="Ccedillaacute">
          228 1340 1847 rmoveto
          -158 hlineto
          -304 -288 rlineto
          129 hlineto
          451 -583 rmoveto
          6 0 3 -1 10 vhcurveto
          284 -14 -219 186 -314 hhcurveto
          -424 -311 -378 -496 -343 195 -232 308 -34 hvcurveto
          -79 -136 -14 -59 56 -1 rlineto
          102 -3 49 -26 -53 vvcurveto
          -56 -52 -31 -83 -54 -48 11 19 -43 vhcurveto
          -19 -90 rlineto
          -20 44 67 -13 62 hhcurveto
          138 94 74 114 94 -69 53 -118 1 hvcurveto
          71 118 274 10 220 165 80 258 rlinecurve
          -139 hlineto
          -193 -73 -171 -114 -213 hhcurveto
          -272 -173 191 302 424 248 318 344 233 164 -136 -210 14 hvcurveto
          1 -6 1 -6 -5 vvcurveto
          endchar
        </CharString>
        <CharString name="Ccircumflex">
          228 1320 976 -95 callsubr
          -273 877 -69 callgsubr
        </CharString>
        <CharString name="Cdotaccent">
          228 1320 976 -95 callsubr
          -345 650 -102 callgsubr
        </CharString>
        <CharString name="Checyrillic">
          17 callgsubr
          endchar
        </CharString>
        <CharString name="Chigreek">
          101 -23 38 callsubr
        </CharString>
        <CharString name="D">
          237 387 1443 33 callgsubr
        </CharString>
        <CharString name="Dcaron">
          237 387 1443 -91 callsubr
          519 1436 -86 callgsubr
        </CharString>
        <CharString name="Dcircumflexbelow">
          237 387 1443 -91 callsubr
          305 -287 -64 callsubr
        </CharString>
        <CharString name="Dcommaaccent">
          237 387 1443 -91 callsubr
          138 -597 -40 callgsubr
        </CharString>
        <CharString name="Dcroat">
          237 246 122 rmoveto
          118 553 rlineto
          366 hlineto
          26 124 rlineto
          -366 hlineto
          111 522 rlineto
          285 hlineto
          317 165 -168 -304 -421 -275 -306 -396 hvcurveto
          -210 1321 rmoveto
          -136 -644 rlineto
          -138 hlineto
          -27 -124 rlineto
          139 hlineto
          -143 -675 rlineto
          524 hlineto
          479 323 357 509 358 -219 219 -380 hvcurveto
          endchar
        </CharString>
        <CharString name="Ddotaccent">
          237 387 1443 -91 callsubr
          599 1503 -102 callgsubr
        </CharString>
        <CharString name="Ddotbelow">
          237 387 1443 -91 callsubr
          236 -502 -102 callgsubr
        </CharString>
        <CharString name="Decyrillic">
          255 451 503 rmoveto
          223 816 rlineto
          609 hlineto
          -254 -1195 rlineto
          -768 hlineto
          2 10 93 82 49 121 46 166 rlinecurve
          -370 -503 rmoveto
          1117 hlineto
          -61 -285 rlineto
          128 hlineto
          86 409 129 callsubr
          29 callgsubr
          -874 hlineto
          -255 -935 -52 -193 -71 -137 -115 -54 rlinecurve
          -103 hlineto
          -87 -409 rlineto
          128 hlineto
          endchar
        </CharString>
        <CharString name="Deltagreek">
          162 1189 hmoveto
          21 97 -234 1346 88 callsubr
          -805 -1346 -20 -97 rlineto
          862 1274 rmoveto
          4 hlineto
          197 -1148 -1 -2 rlineto
          -875 hlineto
          1 4 rlineto
          endchar
        </CharString>
        <CharString name="Djecyrillic">
          492 490 hmoveto
          140 hlineto
          120 568 rlineto
          114 89 164 84 145 hhcurveto
          189 104 -108 -188 -206 -153 -153 -204 -47 -55 5 8 -20 hvcurveto
          -27 -123 rlineto
          -8 22 66 -7 59 hhcurveto
          294 204 204 294 253 -153 153 -265 -137 -137 -58 -91 -90 hvcurveto
          -11 hlineto
          123 579 rlineto
          483 hlineto
          26 123 rlineto
          -1104 hlineto
          -26 -123 rlineto
          482 hlineto
          endchar
        </CharString>
        <CharString name="Dlinebelow">
          237 387 1443 -91 callsubr
          556 -364 -74 callsubr
        </CharString>
        <CharString name="Dzecyrillic">
          70 110 416 rmoveto
          -101 callsubr
          endchar
        </CharString>
        <CharString name="Dzhecyrillic">
          229 1185 hmoveto
          -2 callsubr
          -280 -1318 rlineto
          -825 hlineto
          281 1318 rlineto
          -137 -98 callgsubr
          517 hlineto
          -61 -285 rlineto
          123 hlineto
          61 285 rlineto
          endchar
        </CharString>
        <CharString name="E">
          -52 979 124 -100 callgsubr
          endchar
        </CharString>
        <CharString name="Eacute">
          -52 979 124 -100 callgsubr
          -41 1558 -83 callgsubr
        </CharString>
        <CharString name="Ebreve">
          -52 979 124 -100 callgsubr
          -358 1822 -74 callgsubr
          endchar
        </CharString>
        <CharString name="Ecaron">
          -52 979 124 -100 callgsubr
          -153 1558 -86 callgsubr
        </CharString>
        <CharString name="Ecedilla">
          -52 1233 1319 rmoveto
          27 124 rlineto
          -873 hlineto
          -307 -1443 rlineto
          407 hlineto
          -89 -154 -14 -59 56 -1 rlineto
          102 -3 49 -26 -53 vvcurveto
          -56 -52 -31 -83 -54 -48 11 19 -43 vhcurveto
          -19 -90 rlineto
          -20 44 67 -13 62 hhcurveto
          138 94 74 114 94 -69 53 -118 1 hvcurveto
          84 140 rlineto
          359 hlineto
          26 124 rlineto
          -733 hlineto
          118 554 rlineto
          695 hlineto
          27 122 rlineto
          -696 hlineto
          110 519 rlineto
          endchar
        </CharString>
        <CharString name="Ecedillabreve">
          -52 1094 1822 rmoveto
          -119 -22 -95 -71 -115 hhcurveto
          -105 -68 56 96 13 3 16 3 9 hvcurveto
          -100 hlineto
          -4 -14 -3 -21 -19 vvcurveto
          -135 111 -87 147 186 130 103 173 32 vhcurveto
          39 -503 rmoveto
          27 124 rlineto
          -873 hlineto
          -307 -1443 rlineto
          407 hlineto
          -89 -154 -14 -59 56 -1 rlineto
          102 -3 49 -26 -53 vvcurveto
          -56 -52 -31 -83 -54 -48 11 19 -43 vhcurveto
          -19 -90 rlineto
          -20 44 67 -13 62 hhcurveto
          138 94 74 114 94 -69 53 -118 1 hvcurveto
          84 140 rlineto
          359 hlineto
          26 124 rlineto
          -733 hlineto
          118 554 rlineto
          695 hlineto
          27 122 rlineto
          -696 hlineto
          110 519 rlineto
          endchar
        </CharString>
        <CharString name="Ecircumflex">
          -52 979 124 -100 callgsubr
          -1 1852 -69 callgsubr
        </CharString>
        <CharString name="Ecircumflexacute">
          -52 979 124 -100 callgsubr
          -120 1785 -57 callgsubr
          109 20 rmoveto
          125 26 callgsubr
          endchar
        </CharString>
        <CharString name="Ecircumflexbelow">
          -52 979 124 -100 callgsubr
          -408 -165 -64 callsubr
        </CharString>
        <CharString name="Ecircumflexdotbelow">
          -52 979 124 -100 callgsubr
          -1 1852 -77 callsubr
          -688 -1938 -102 callgsubr
        </CharString>
        <CharString name="Ecircumflexgrave">
          -52 979 124 -100 callgsubr
          -120 1785 -57 callgsubr
          301 20 32 callgsubr
          endchar
        </CharString>
        <CharString name="Ecircumflexhookabove">
          -52 979 124 -100 callgsubr
          -120 1785 -57 callgsubr
          50 148 rmoveto
          8 25 31 6 30 hhcurveto
          57 36 -27 -42 -44 -38 -32 -54 -16 hvcurveto
          49 -57 rlineto
          88 29 51 58 74 vvcurveto
          79 -66 52 -102 -32 -39 -7 -8 -17 vhcurveto
          endchar
        </CharString>
        <CharString name="Ecircumflextilde">
          -52 979 124 -100 callgsubr
          85 1830 -41 callsubr
        </CharString>
        <CharString name="Ecyrillic">
          -7 callsubr
          endchar
        </CharString>
        <CharString name="Edblgrave">
          -52 979 124 -100 callgsubr
          -301 1558 -33 callgsubr
        </CharString>
        <CharString name="Edieresis">
          -52 979 124 -100 callgsubr
          -248 1612 -104 callgsubr
        </CharString>
        <CharString name="Edotaccent">
          -52 979 124 -100 callgsubr
          -73 1625 -102 callgsubr
        </CharString>
        <CharString name="Edotbelow">
          -52 979 124 -100 callgsubr
          -477 -380 -102 callgsubr
        </CharString>
        <CharString name="Efcyrillic">
          425 797 -17 rmoveto
          32 154 rlineto
          456 9 328 290 392 vvcurveto
          293 -201 182 -333 10 vhcurveto
          31 147 rlineto
          -135 hlineto
          -31 -147 rlineto
          -455 -9 -329 -290 -392 vvcurveto
          -293 201 -182 333 -10 vhcurveto
          -33 -154 rlineto
          -361 642 rmoveto
          319 259 237 359 9 vhcurveto
          -198 -930 rlineto
          -263 5 -157 135 225 vvcurveto
          1174 200 rmoveto
          -319 -260 -237 -359 -9 vhcurveto
          198 930 rlineto
          263 -5 158 -135 -225 vvcurveto
          endchar
        </CharString>
        <CharString name="Egrave">
          -52 979 124 -100 callgsubr
          -174 1558 -29 callsubr
        </CharString>
        <CharString name="Ehookabove">
          -52 979 124 -100 callgsubr
          -243 1759 -65 callsubr
        </CharString>
        <CharString name="Einvertedbreve">
          -52 979 124 -100 callgsubr
          195 1546 -57 callsubr
        </CharString>
        <CharString name="Elcyrillic">
          166 1122 hmoveto
          -46 callgsubr
        </CharString>
        <CharString name="Emacron">
          -52 979 124 -100 callgsubr
          238 1720 -74 callsubr
        </CharString>
        <CharString name="Emacronacute">
          -52 979 124 -100 callgsubr
          211 1599 40 callsubr
          287 206 rmoveto
          125 26 callgsubr
          endchar
        </CharString>
        <CharString name="Emacrongrave">
          -52 979 124 -100 callgsubr
          211 1599 40 callsubr
          408 206 44 callsubr
          endchar
        </CharString>
        <CharString name="Emcyrillic">
          523 215 20 callsubr
        </CharString>
        <CharString name="Encyrillic">
          250 1205 4 callsubr
        </CharString>
        <CharString name="Eogonek">
          -52 80 hmoveto
          730 -3 hlineto
          -147 -77 -79 -93 -93 vvcurveto
          -87 71 -59 106 40 41 7 11 17 vhcurveto
          20 93 rlineto
          -9 -19 -25 -4 -28 hhcurveto
          -63 -40 33 51 69 78 77 160 86 hvcurveto
          13 8 24 114 rlineto
          -734 hlineto
          118 554 rlineto
          696 hlineto
          27 122 rlineto
          -697 hlineto
          111 109 callsubr
          endchar
        </CharString>
        <CharString name="Epsilongreek">
          -52 979 124 -100 callgsubr
          endchar
        </CharString>
        <CharString name="Epsilontonosgreek">
          170 186 5 callsubr
          874 -1319 -100 callgsubr
          endchar
        </CharString>
        <CharString name="Ercyrillic">
          51 394 1443 -70 callgsubr
          endchar
        </CharString>
        <CharString name="Ereversedcyrillic">
          223 -83 callsubr
          endchar
        </CharString>
        <CharString name="Escyrillic">
          238 1325 976 -95 callsubr
          endchar
        </CharString>
        <CharString name="Etagreek">
          240 1200 4 callsubr
        </CharString>
        <CharString name="Etatonosgreek">
          462 186 5 callsubr
          1095 -1443 -23 callsubr
        </CharString>
        <CharString name="Eth">
          237 246 122 rmoveto
          118 553 rlineto
          366 hlineto
          26 124 rlineto
          -366 hlineto
          111 522 rlineto
          285 hlineto
          317 165 -168 -304 -421 -275 -306 -396 hvcurveto
          -210 1321 rmoveto
          -136 -644 rlineto
          -138 hlineto
          -27 -124 rlineto
          139 hlineto
          -143 -675 rlineto
          524 hlineto
          479 323 357 509 358 -219 219 -380 hvcurveto
          endchar
        </CharString>
        <CharString name="Etilde">
          -52 979 124 -100 callgsubr
          40 1549 -101 callgsubr
          endchar
        </CharString>
        <CharString name="Etildebelow">
          -52 979 124 -100 callgsubr
          -356 -417 -101 callgsubr
          endchar
        </CharString>
        <CharString name="Euro">
          65 193 926 rmoveto
          -23 -105 rlineto
          176 hlineto
          -10 -56 -5 -59 -61 vvcurveto
          -8 0 -8 -8 vvcurveto
          -205 hlineto
          -23 -106 rlineto
          240 hlineto
          -319 59 278 -210 365 hhcurveto
          30 25 2 3 10 hvcurveto
          26 125 rlineto
          -2 -10 -26 -3 -22 hhcurveto
          -309 -219 156 248 -58 hvcurveto
          484 hlineto
          22 106 rlineto
          -520 hlineto
          -1 10 0 11 10 vvcurveto
          59 5 57 11 53 vhcurveto
          550 hlineto
          22 105 rlineto
          -543 hlineto
          254 90 223 154 305 hhcurveto
          79 89 -15 -18 51 hvcurveto
          28 125 rlineto
          18 -50 -98 17 -91 hhcurveto
          -394 -283 -205 -330 -100 hvcurveto
          endchar
        </CharString>
        <CharString name="F">
          -95 219 18 callsubr
          endchar
        </CharString>
        <CharString name="Fdotaccent">
          -95 219 18 callsubr
          793 1625 -102 callgsubr
        </CharString>
        <CharString name="G">
          -94 callsubr
          endchar
        </CharString>
        <CharString name="Gacute">
          -94 callsubr
          -389 1044 -83 callgsubr
        </CharString>
        <CharString name="Gammagreek">
          -74 238 hmoveto
          280 124 callgsubr
          698 -30 callsubr
          -838 -98 callgsubr
          endchar
        </CharString>
        <CharString name="Gbreve">
          -94 callsubr
          -706 1308 -74 callgsubr
          endchar
        </CharString>
        <CharString name="Gcaron">
          -94 callsubr
          -501 1044 -86 callgsubr
        </CharString>
        <CharString name="Gcircumflex">
          -94 callsubr
          -349 1338 -69 callgsubr
        </CharString>
        <CharString name="Gcommaaccent">
          -94 callsubr
          -799 -989 -40 callgsubr
        </CharString>
        <CharString name="Gdotaccent">
          -94 callsubr
          -421 1111 -102 callgsubr
        </CharString>
        <CharString name="Gecyrillic">
          79 callgsubr
          endchar
        </CharString>
        <CharString name="Geupturncyrillic">
          -95 505 1319 rmoveto
          711 hlineto
          84 397 rlineto
          -127 hlineto
          -58 -273 rlineto
          -723 hlineto
          -307 78 callgsubr
          endchar
        </CharString>
        <CharString name="Gjecyrillic">
          79 callgsubr
          805 1558 -83 callgsubr
        </CharString>
        <CharString name="Gmacron">
          -94 callsubr
          -110 1206 -74 callsubr
        </CharString>
        <CharString name="H">
          240 1200 4 callsubr
        </CharString>
        <CharString name="Hardsigncyrillic">
          284 854 hmoveto
          311 233 203 294 235 -179 153 -268 hvcurveto
          -307 hlineto
          119 558 rlineto
          -478 hlineto
          -27 -124 rlineto
          339 63 callgsubr
          608 763 rmoveto
          202 130 -98 -176 -216 -176 -151 -239 hvcurveto
          -359 hlineto
          137 641 rlineto
          endchar
        </CharString>
        <CharString name="Hbar">
          240 1231 801 rmoveto
          -841 hlineto
          59 277 rlineto
          841 hlineto
          267 124 rmoveto
          -101 hlineto
          51 241 rlineto
          -139 hlineto
          -51 -241 rlineto
          -842 hlineto
          51 241 rlineto
          -139 hlineto
          -51 -241 rlineto
          -104 hlineto
          -26 -124 rlineto
          103 hlineto
          -229 -1078 rlineto
          139 hlineto
          145 677 rlineto
          841 hlineto
          -144 -677 rlineto
          139 hlineto
          229 1078 rlineto
          102 hlineto
          endchar
        </CharString>
        <CharString name="Hbrevebelow">
          240 1200 hmoveto
          -92 callgsubr
          -743 -156 9 callgsubr
        </CharString>
        <CharString name="Hcaron">
          240 1200 hmoveto
          -92 callgsubr
          -143 1558 -86 callgsubr
        </CharString>
        <CharString name="Hcedilla">
          240 1368 1443 rmoveto
          -137 -642 rlineto
          -841 hlineto
          136 642 rlineto
          -139 hlineto
          -307 -1443 rlineto
          32 hlineto
          -89 -154 -14 -59 56 -1 rlineto
          102 -3 49 -26 -53 vvcurveto
          -56 -52 -31 -83 -54 -48 11 19 -43 vhcurveto
          -19 -90 rlineto
          -20 44 67 -13 62 hhcurveto
          138 94 74 114 94 -69 53 -118 1 hvcurveto
          84 140 145 677 rlineto
          841 hlineto
          -144 -677 rlineto
          139 hlineto
          307 1443 rlineto
          endchar
        </CharString>
        <CharString name="Hcircumflex">
          240 1200 hmoveto
          -92 callgsubr
          9 1852 -69 callgsubr
        </CharString>
        <CharString name="Hdieresis">
          240 1200 hmoveto
          -92 callgsubr
          -238 1612 -104 callgsubr
        </CharString>
        <CharString name="Hdotaccent">
          240 1200 hmoveto
          -92 callgsubr
          -63 1625 -102 callgsubr
        </CharString>
        <CharString name="Hdotbelow">
          240 1200 hmoveto
          -92 callgsubr
          -464 -380 -102 callgsubr
        </CharString>
        <CharString name="I">
          -741 219 93 callgsubr
        </CharString>
        <CharString name="I.1">
          -279 1020 1325 rmoveto
          25 118 rlineto
          -288 hlineto
          -139 hlineto
          -288 hlineto
          -25 -118 rlineto
          288 hlineto
          -257 -1207 rlineto
          -288 hlineto
          -25 -118 rlineto
          288 hlineto
          139 hlineto
          288 hlineto
          25 118 rlineto
          -288 hlineto
          257 1207 rlineto
          endchar
        </CharString>
        <CharString name="IAcyrillic">
          -67 callsubr
          endchar
        </CharString>
        <CharString name="IJ">
          255 219 hmoveto
          -2 callsubr
          -307 -1443 rlineto
          398 318 -67 callgsubr
          endchar
        </CharString>
        <CharString name="IJacute">
          255 219 hmoveto
          -2 callsubr
          -307 -1443 rlineto
          466 1558 rmoveto
          -16 callsubr
          -158 hlineto
          -304 -288 rlineto
          1125 hmoveto
          -16 callsubr
          -158 hlineto
          -304 -288 rlineto
          -935 -1240 -67 callgsubr
          endchar
        </CharString>
        <CharString name="IUcyrillic">
          815 1239 104 rmoveto
          -267 -171 194 301 407 250 333 353 267 171 -194 -301 -415 -255 -325 -348 hvcurveto
          -844 697 rmoveto
          136 642 rlineto
          -139 hlineto
          -307 -1443 rlineto
          139 hlineto
          144 677 rlineto
          296 hlineto
          -2 -27 -1 -28 -28 vvcurveto
          -369 227 -247 351 425 318 385 485 370 -227 247 -351 -367 -280 -285 -379 -76 vhcurveto
          endchar
        </CharString>
        <CharString name="Iacute">
          -741 219 hmoveto
          -2 callsubr
          -307 -1443 rlineto
          466 1558 -83 callgsubr
        </CharString>
        <CharString name="Iacute.1">
          -279 1108 1846 rmoveto
          -158 hlineto
          -304 -288 rlineto
          129 hlineto
          -157 -115 rmoveto
          -288 hlineto
          -25 -118 rlineto
          288 hlineto
          -257 -1207 rlineto
          -288 hlineto
          -25 -118 rlineto
          288 hlineto
          139 hlineto
          288 hlineto
          25 118 rlineto
          -288 hlineto
          257 1207 rlineto
          288 hlineto
          25 118 rlineto
          -288 hlineto
          endchar
        </CharString>
        <CharString name="Ibreve">
          -741 219 hmoveto
          -2 callsubr
          -307 -1443 rlineto
          149 1822 -74 callgsubr
          endchar
        </CharString>
        <CharString name="Ibreve.1">
          -279 958 1822 rmoveto
          -119 -22 -95 -71 -115 hhcurveto
          -105 -68 56 96 13 3 16 3 9 hvcurveto
          -100 hlineto
          -4 -14 -3 -21 -19 vvcurveto
          -135 111 -87 147 186 130 103 173 32 vhcurveto
          -440 -379 rmoveto
          -288 hlineto
          -25 -118 rlineto
          288 hlineto
          -257 -1207 rlineto
          -288 hlineto
          -25 -118 rlineto
          288 hlineto
          139 hlineto
          288 hlineto
          25 118 rlineto
          -288 hlineto
          257 1207 rlineto
          288 hlineto
          25 118 rlineto
          -288 hlineto
          endchar
        </CharString>
        <CharString name="Icaron">
          -741 219 hmoveto
          -2 callsubr
          -307 -1443 rlineto
          354 1558 -86 callgsubr
        </CharString>
        <CharString name="Icaron.1">
          -279 768 1558 rmoveto
          337 294 rlineto
          -140 hlineto
          -238 -209 rlineto
          -4 hlineto
          -149 209 rlineto
          -122 hlineto
          212 -294 rlineto
          -46 -115 rmoveto
          -288 hlineto
          -25 -118 rlineto
          288 hlineto
          -257 -1207 rlineto
          -288 hlineto
          -25 -118 rlineto
          288 hlineto
          139 hlineto
          288 hlineto
          25 118 rlineto
          -288 hlineto
          257 1207 rlineto
          288 hlineto
          25 118 rlineto
          -288 hlineto
          endchar
        </CharString>
        <CharString name="Icircumflex">
          -741 219 hmoveto
          -2 callsubr
          -307 -1443 rlineto
          506 1852 -69 callgsubr
        </CharString>
        <CharString name="Icircumflex.1">
          -279 754 1768 rmoveto
          5 hlineto
          148 -210 rlineto
          121 hlineto
          -212 294 rlineto
          -103 hlineto
          -337 -294 rlineto
          140 hlineto
          504 -233 rmoveto
          25 118 rlineto
          -288 hlineto
          -139 hlineto
          -288 hlineto
          -25 -118 rlineto
          288 hlineto
          -257 -1207 rlineto
          -288 hlineto
          -25 -118 rlineto
          288 hlineto
          139 hlineto
          288 hlineto
          25 118 rlineto
          -288 hlineto
          257 1207 rlineto
          endchar
        </CharString>
        <CharString name="Icyrillic">
          87 callsubr
        </CharString>
        <CharString name="Icyrillic.1">
          -259 1030 1325 rmoveto
          25 118 rlineto
          -288 hlineto
          -139 hlineto
          -288 hlineto
          -25 -118 rlineto
          288 hlineto
          -257 -1207 rlineto
          -288 hlineto
          -25 -118 rlineto
          288 hlineto
          139 hlineto
          288 hlineto
          25 118 rlineto
          -288 hlineto
          257 1207 rlineto
          endchar
        </CharString>
        <CharString name="Idblgrave">
          -741 219 hmoveto
          -2 callsubr
          -307 -1443 rlineto
          206 1558 -33 callgsubr
        </CharString>
        <CharString name="Idblgrave.1">
          -279 927 1558 rmoveto
          -164 288 rlineto
          -141 hlineto
          193 -288 rlineto
          -186 0 rmoveto
          -165 288 rlineto
          -140 hlineto
          192 -288 rlineto
          504 -233 rmoveto
          25 118 rlineto
          -288 hlineto
          -139 hlineto
          -288 hlineto
          -25 -118 rlineto
          288 hlineto
          -257 -1207 rlineto
          -288 hlineto
          -25 -118 rlineto
          288 hlineto
          139 hlineto
          288 hlineto
          25 118 rlineto
          -288 hlineto
          257 1207 rlineto
          endchar
        </CharString>
        <CharString name="Idieresis">
          23 callsubr
        </CharString>
        <CharString name="Idieresis.1">
          -279 910 1612 rmoveto
          50 41 41 50 51 -41 40 -50 -50 -42 -40 -51 -50 42 -41 50 hvcurveto
          -341 0 rmoveto
          50 42 41 50 51 -42 40 -50 -49 -42 -40 -51 -50 42 -41 49 hvcurveto
          451 -287 rmoveto
          25 118 rlineto
          -288 hlineto
          -139 hlineto
          -288 hlineto
          -25 -118 rlineto
          288 hlineto
          -257 -1207 rlineto
          -288 hlineto
          -25 -118 rlineto
          288 hlineto
          139 hlineto
          288 hlineto
          25 118 rlineto
          -288 hlineto
          257 1207 rlineto
          endchar
        </CharString>
        <CharString name="Idieresisacute">
          -741 219 hmoveto
          -2 callsubr
          -307 -1443 rlineto
          372 1805 -29 callgsubr
        </CharString>
        <CharString name="Idieresisacute.1">
          -279 1049 2016 rmoveto
          -141 hlineto
          -226 -211 rlineto
          124 hlineto
          0 -163 rmoveto
          -49 40 -39 48 48 40 39 49 49 -40 39 -48 -48 -40 -39 -49 vhcurveto
          -240 -88 rmoveto
          47 40 39 49 49 -40 39 -47 -49 -39 -39 -49 -49 39 -39 49 hvcurveto
          52 -111 rmoveto
          -288 hlineto
          -25 -118 rlineto
          288 hlineto
          -257 -1207 rlineto
          -288 hlineto
          -25 -118 rlineto
          288 hlineto
          139 hlineto
          288 hlineto
          25 118 rlineto
          -288 hlineto
          257 1207 rlineto
          288 hlineto
          25 118 rlineto
          -288 hlineto
          endchar
        </CharString>
        <CharString name="Idotaccent">
          -741 219 hmoveto
          -2 callsubr
          -307 -1443 rlineto
          434 1625 -102 callgsubr
        </CharString>
        <CharString name="Idotaccent.1">
          -279 744 1625 rmoveto
          57 47 47 57 57 -47 47 -57 -57 -47 -47 -57 -57 47 -47 57 hvcurveto
          276 -300 rmoveto
          25 118 rlineto
          -288 hlineto
          -139 hlineto
          -288 hlineto
          -25 -118 rlineto
          288 hlineto
          -257 -1207 rlineto
          -288 hlineto
          -25 -118 rlineto
          288 hlineto
          139 hlineto
          288 hlineto
          25 118 rlineto
          -288 hlineto
          257 1207 rlineto
          endchar
        </CharString>
        <CharString name="Idotbelow">
          -741 219 hmoveto
          -2 callsubr
          -307 -1443 rlineto
          7 -380 -102 callgsubr
        </CharString>
        <CharString name="Idotbelow.1">
          -279 318 -172 rmoveto
          -57 -47 -47 -57 -57 47 -47 57 57 47 47 57 57 -47 47 -57 hvcurveto
          702 1497 rmoveto
          25 118 rlineto
          -288 hlineto
          -139 hlineto
          -288 hlineto
          -25 -118 rlineto
          288 hlineto
          -257 -1207 rlineto
          -288 hlineto
          -25 -118 rlineto
          288 hlineto
          139 hlineto
          288 hlineto
          25 118 rlineto
          -288 hlineto
          257 1207 rlineto
          endchar
        </CharString>
        <CharString name="Iecyrillic">
          -42 984 124 -100 callgsubr
          endchar
        </CharString>
        <CharString name="Igrave">
          -741 219 hmoveto
          -2 callsubr
          -307 -1443 rlineto
          332 1558 -29 callsubr
        </CharString>
        <CharString name="Igrave.1">
          -279 754 1558 rmoveto
          -164 288 rlineto
          -140 hlineto
          192 -288 rlineto
          378 -233 rmoveto
          25 118 rlineto
          -288 hlineto
          -139 hlineto
          -288 hlineto
          -25 -118 rlineto
          288 hlineto
          -257 -1207 rlineto
          -288 hlineto
          -25 -118 rlineto
          288 hlineto
          139 hlineto
          288 hlineto
          25 118 rlineto
          -288 hlineto
          257 1207 rlineto
          endchar
        </CharString>
        <CharString name="Ihookabove">
          -741 219 hmoveto
          -2 callsubr
          -307 -1443 rlineto
          264 1759 -65 callsubr
        </CharString>
        <CharString name="Ihookabove.1">
          -279 685 1532 rmoveto
          112 27 66 66 87 vvcurveto
          85 -70 56 -109 -30 -42 -7 -9 -19 vhcurveto
          -19 -78 rlineto
          9 26 31 5 33 hhcurveto
          60 35 -28 -44 -50 -43 -37 -67 -15 hvcurveto
          371 -274 rmoveto
          25 118 rlineto
          -288 hlineto
          -139 hlineto
          -288 hlineto
          -25 -118 rlineto
          288 hlineto
          -257 -1207 rlineto
          -288 hlineto
          -25 -118 rlineto
          288 hlineto
          139 hlineto
          288 hlineto
          25 118 rlineto
          -288 hlineto
          257 1207 rlineto
          endchar
        </CharString>
        <CharString name="Iicyrillic">
          253 1071 hmoveto
          -61 callsubr
          endchar
        </CharString>
        <CharString name="Iinvertedbreve">
          -741 219 hmoveto
          -2 callsubr
          -307 -1443 rlineto
          702 1546 -57 callsubr
        </CharString>
        <CharString name="Iinvertedbreve.1">
          -279 1012 1546 rmoveto
          5 12 3 20 23 vvcurveto
          132 -112 89 -147 -186 -130 -107 -169 -31 vhcurveto
          99 hlineto
          116 21 96 74 116 hhcurveto
          105 68 -59 -92 -16 -3 -16 -3 -7 hvcurveto
          107 -221 rmoveto
          25 118 rlineto
          -288 hlineto
          -139 hlineto
          -288 hlineto
          -25 -118 rlineto
          288 hlineto
          -257 -1207 rlineto
          -288 hlineto
          -25 -118 rlineto
          288 hlineto
          139 hlineto
          288 hlineto
          25 118 rlineto
          -288 hlineto
          257 1207 rlineto
          endchar
        </CharString>
        <CharString name="Iishortcyrillic">
          253 1071 hmoveto
          -61 callsubr
          -615 614 -79 callsubr
        </CharString>
        <CharString name="Imacron">
          -741 219 hmoveto
          -2 callsubr
          -307 -1443 rlineto
          745 1720 -74 callsubr
        </CharString>
        <CharString name="Imacron.1">
          -279 1055 1720 rmoveto
          -617 hlineto
          -20 -92 rlineto
          617 hlineto
          -417 -185 rmoveto
          -288 hlineto
          -25 -118 rlineto
          288 hlineto
          -257 -1207 rlineto
          -288 hlineto
          -25 -118 rlineto
          288 hlineto
          139 hlineto
          288 hlineto
          25 118 rlineto
          -288 hlineto
          257 1207 rlineto
          288 hlineto
          25 118 rlineto
          -288 hlineto
          endchar
        </CharString>
        <CharString name="Iocyrillic">
          -42 984 124 -100 callgsubr
          -248 1612 -104 callgsubr
        </CharString>
        <CharString name="Iogonek">
          -741 78 -412 rmoveto
          40 42 7 11 17 hvcurveto
          19 93 rlineto
          -9 -15 -24 -4 -32 hhcurveto
          -63 -41 33 54 69 47 65 142 96 hvcurveto
          12 8 304 1432 rlineto
          -7 callgsubr
          -309 -1451 rlineto
          0 vlineto
          -121 -93 -56 -80 -85 vvcurveto
          -87 72 -59 105 vhcurveto
          endchar
        </CharString>
        <CharString name="Iogonek.1">
          -279 305 1325 rmoveto
          288 hlineto
          -257 -1207 rlineto
          -288 hlineto
          -25 -118 rlineto
          564 -4 hlineto
          -135 -70 -81 -92 -5 -92 rrcurveto
          -92 -7 72 -62 112 hhcurveto
          41 42 7 10 16 hvcurveto
          19 92 rlineto
          -7 -17 -27 -4 -28 hhcurveto
          -69 -39 36 55 5 hvcurveto
          5 70 85 78 148 76 16 9 rcurveline
          23 108 rlineto
          -288 hlineto
          257 1207 rlineto
          288 -19 callsubr
          endchar
        </CharString>
        <CharString name="Iotadieresisgreek">
          23 callsubr
        </CharString>
        <CharString name="Iotadieresisgreek.1">
          -279 910 1612 rmoveto
          50 41 41 50 51 -41 40 -50 -50 -42 -40 -51 -50 42 -41 50 hvcurveto
          -341 0 rmoveto
          50 42 41 50 51 -42 40 -50 -49 -42 -40 -51 -50 42 -41 49 hvcurveto
          451 -287 rmoveto
          25 118 rlineto
          -288 hlineto
          -139 hlineto
          -288 hlineto
          -25 -118 rlineto
          288 hlineto
          -257 -1207 rlineto
          -288 hlineto
          -25 -118 rlineto
          288 hlineto
          139 hlineto
          288 hlineto
          25 118 rlineto
          -288 hlineto
          257 1207 rlineto
          endchar
        </CharString>
        <CharString name="Iotagreek">
          -741 219 93 callgsubr
        </CharString>
        <CharString name="Iotagreek.1">
          -279 1020 1325 rmoveto
          25 118 rlineto
          -288 hlineto
          -139 hlineto
          -288 hlineto
          -25 -118 rlineto
          288 hlineto
          -257 -1207 rlineto
          -288 hlineto
          -25 -118 rlineto
          288 hlineto
          139 hlineto
          288 hlineto
          25 118 rlineto
          -288 hlineto
          257 1207 rlineto
          endchar
        </CharString>
        <CharString name="Iotatonosgreek">
          -512 186 5 callsubr
          114 -1443 -72 callsubr
          endchar
        </CharString>
        <CharString name="Iotatonosgreek.1">
          -18 496 1443 rmoveto
          -169 hlineto
          -141 -297 rlineto
          111 hlineto
          984 179 rmoveto
          25 118 rlineto
          -288 hlineto
          -139 hlineto
          -288 hlineto
          -25 -118 rlineto
          288 hlineto
          -257 -1207 rlineto
          -288 hlineto
          -25 -118 rlineto
          288 hlineto
          139 hlineto
          288 hlineto
          25 118 rlineto
          -288 hlineto
          257 1207 rlineto
          endchar
        </CharString>
        <CharString name="Itilde">
          -741 219 hmoveto
          -2 callsubr
          -307 -1443 rlineto
          547 1549 -101 callgsubr
          endchar
        </CharString>
        <CharString name="Itilde.1">
          -279 976 1786 rmoveto
          -98 -20 -45 -49 -47 hhcurveto
          -86 -22 157 -138 hhcurveto
          -105 -83 -88 -149 -26 hvcurveto
          93 hlineto
          95 17 46 52 51 hhcurveto
          90 24 -157 132 hhcurveto
          101 81 89 148 30 hvcurveto
          -451 -343 rmoveto
          -288 hlineto
          -25 -118 rlineto
          288 hlineto
          -257 -1207 rlineto
          -288 hlineto
          -25 -118 rlineto
          288 hlineto
          139 hlineto
          288 hlineto
          25 118 rlineto
          -288 hlineto
          257 1207 rlineto
          288 hlineto
          25 118 rlineto
          -288 hlineto
          endchar
        </CharString>
        <CharString name="Itildebelow">
          -741 219 hmoveto
          -2 callsubr
          -307 -1443 rlineto
          128 -417 -101 callgsubr
          endchar
        </CharString>
        <CharString name="Itildebelow.1">
          -279 79 -407 rmoveto
          95 17 46 52 51 hhcurveto
          90 24 -157 132 hhcurveto
          101 81 89 148 30 hvcurveto
          -93 hlineto
          -98 -20 -45 -49 -47 hhcurveto
          -86 -22 157 -138 hhcurveto
          -105 -83 -88 -149 -26 hvcurveto
          1034 1732 rmoveto
          25 118 rlineto
          -288 hlineto
          -139 hlineto
          -288 hlineto
          -25 -118 rlineto
          288 hlineto
          -257 -1207 rlineto
          -288 hlineto
          -25 -118 rlineto
          288 hlineto
          139 hlineto
          288 hlineto
          25 118 rlineto
          -288 hlineto
          257 1207 rlineto
          endchar
        </CharString>
        <CharString name="J">
          -158 65 318 -67 callgsubr
          endchar
        </CharString>
        <CharString name="Jcircumflex">
          -158 65 318 -67 callgsubr
          1104 1534 -69 callgsubr
        </CharString>
        <CharString name="Jecyrillic">
          -148 70 318 -67 callgsubr
          endchar
        </CharString>
        <CharString name="K">
          -70 callsubr
          endchar
        </CharString>
        <CharString name="Kacute">
          -70 callsubr
          829 1558 -83 callgsubr
        </CharString>
        <CharString name="Kacyrillic">
          68 1408 1443 rmoveto
          -189 hlineto
          -821 -671 rlineto
          -8 hlineto
          141 671 rlineto
          -139 hlineto
          -307 -1443 rlineto
          139 hlineto
          151 706 rlineto
          8 hlineto
          592 -706 rlineto
          169 hlineto
          -612 734 rlineto
          endchar
        </CharString>
        <CharString name="Kappagreek">
          -70 callsubr
          endchar
        </CharString>
        <CharString name="Kcaron">
          -70 callsubr
          717 1558 -86 callgsubr
        </CharString>
        <CharString name="Kcommaaccent">
          -70 callsubr
          340 -475 -40 callgsubr
        </CharString>
        <CharString name="Kdotbelow">
          -70 callsubr
          438 -380 -102 callgsubr
        </CharString>
        <CharString name="Kjecyrillic">
          68 1251 1846 rmoveto
          -158 hlineto
          -304 -288 rlineto
          129 hlineto
          490 -115 rmoveto
          -189 hlineto
          -821 -671 rlineto
          -8 hlineto
          141 671 rlineto
          -139 hlineto
          -307 -1443 rlineto
          139 hlineto
          151 706 rlineto
          8 hlineto
          592 -706 rlineto
          169 hlineto
          -612 734 rlineto
          endchar
        </CharString>
        <CharString name="Klinebelow">
          -70 callsubr
          758 -242 -74 callsubr
        </CharString>
        <CharString name="L">
          -101 966 124 81 callgsubr
        </CharString>
        <CharString name="Lacute">
          -101 966 124 -35 callgsubr
          -395 1558 -83 callgsubr
        </CharString>
        <CharString name="Lambdagreek">
          93 841 1274 rmoveto
          4 hlineto
          182 -1274 rlineto
          130 hlineto
          -215 1443 88 callsubr
          -827 -25 callsubr
          151 hlineto
          endchar
        </CharString>
        <CharString name="Lcaron">
          -101 892 98 callgsubr
          -95 100 callgsubr
          -55 -1319 81 callgsubr
        </CharString>
        <CharString name="Lcircumflexbelow">
          -101 966 124 -35 callgsubr
          -423 -165 -64 callsubr
        </CharString>
        <CharString name="Lcommaaccent">
          -101 966 124 -35 callgsubr
          -590 -475 -40 callgsubr
        </CharString>
        <CharString name="Ldotbelow">
          -101 966 124 -35 callgsubr
          -492 -380 -102 callgsubr
        </CharString>
        <CharString name="Ldotbelowmacron">
          -101 966 124 -35 callgsubr
          -492 -380 -103 callsubr
          377 2100 -74 callsubr
        </CharString>
        <CharString name="Ljecyrillic">
          926 461 510 rmoveto
          222 809 rlineto
          567 63 callgsubr
          538 hlineto
          326 220 238 270 238 -183 153 -263 hvcurveto
          -307 hlineto
          116 544 rlineto
          -834 hlineto
          -252 -926 rlineto
          -243 -66 -82 -157 -151 hhcurveto
          -17 -25 3 4 -11 hvcurveto
          -26 -123 rlineto
          -6 15 23 -4 25 hhcurveto
          240 116 187 332 90 hvcurveto
          1119 267 rmoveto
          198 133 -97 -192 -208 -177 -158 -240 hvcurveto
          -359 hlineto
          140 655 rlineto
          endchar
        </CharString>
        <CharString name="Llinebelow">
          -101 966 124 -35 callgsubr
          -172 -242 -74 callsubr
        </CharString>
        <CharString name="Lslash">
          -101 246 124 rmoveto
          113 531 393 183 25 118 -393 -183 142 670 rlineto
          -139 hlineto
          -158 -742 -152 -71 -25 -118 152 71 -124 -583 rlineto
          860 hlineto
          26 124 rlineto
          endchar
        </CharString>
        <CharString name="M">
          513 210 20 callsubr
        </CharString>
        <CharString name="Macute">
          513 210 -73 callsubr
          1050 1558 -83 callgsubr
        </CharString>
        <CharString name="Mdotaccent">
          513 210 -73 callsubr
          1018 1625 -102 callgsubr
        </CharString>
        <CharString name="Mdotbelow">
          513 210 -73 callsubr
          634 -380 -102 callgsubr
        </CharString>
        <CharString name="Mugreek">
          513 210 20 callsubr
        </CharString>
        <CharString name="N">
          246 -90 callsubr
          endchar
        </CharString>
        <CharString name="Nacute">
          246 -90 callsubr
          964 1558 -83 callgsubr
        </CharString>
        <CharString name="Ncaron">
          246 -90 callsubr
          852 1558 -86 callgsubr
        </CharString>
        <CharString name="Ncircumflexbelow">
          246 -90 callsubr
          570 -165 -64 callsubr
        </CharString>
        <CharString name="Ncommaaccent">
          246 -90 callsubr
          403 -475 -40 callgsubr
        </CharString>
        <CharString name="Ndotaccent">
          246 -90 callsubr
          932 1625 -102 callgsubr
        </CharString>
        <CharString name="Ndotbelow">
          246 -90 callsubr
          501 -380 -102 callgsubr
        </CharString>
        <CharString name="Ngrave">
          246 -90 callsubr
          830 1558 -29 callsubr
        </CharString>
        <CharString name="Njecyrillic">
          931 1006 hmoveto
          531 hlineto
          318 204 211 239 212 -174 138 -249 hvcurveto
          -320 hlineto
          137 643 45 callgsubr
          -137 -642 rlineto
          -779 hlineto
          136 642 -53 callsubr
          144 677 rlineto
          781 hlineto
          20 -555 rmoveto
          119 556 rlineto
          319 hlineto
          184 124 -84 -160 -179 -152 -133 -242 hvcurveto
          endchar
        </CharString>
        <CharString name="Nlinebelow">
          246 -90 callsubr
          821 -242 -74 callsubr
        </CharString>
        <CharString name="Ntilde">
          246 -90 callsubr
          1045 1549 -101 callgsubr
          endchar
        </CharString>
        <CharString name="Nugreek">
          246 -90 callsubr
          endchar
        </CharString>
        <CharString name="NumberSignCyrillic">
          984 215 hmoveto
          259 1220 rlineto
          12 hlineto
          551 -1220 rlineto
          34 callsubr
          -136 hlineto
          -259 -1218 rlineto
          -12 hlineto
          -549 1218 rlineto
          -139 -98 callgsubr
          2013 538 rmoveto
          24 114 rlineto
          -633 hlineto
          -24 -114 rlineto
          652 619 rmoveto
          -154 -100 -113 -134 -115 -73 80 123 153 98 113 134 115 75 -80 -122 vhcurveto
          127 3 rmoveto
          184 -125 122 -187 -211 -154 -160 -217 -184 122 -121 188 211 156 161 215 vhcurveto
          endchar
        </CharString>
        <CharString name="O">
          337 918 1339 -105 callgsubr
          endchar
        </CharString>
        <CharString name="OE">
          1083 1209 hmoveto
          873 0 callgsubr
          -734 hlineto
          118 554 rlineto
          696 hlineto
          27 122 rlineto
          -697 hlineto
          111 109 callsubr
          -73 -345 rlineto
          -3 hlineto
          231 -77 -188 136 -258 112 callsubr
          -385 -476 -379 231 -247 354 195 177 87 153 124 hvcurveto
          3 hlineto
          106 618 rmoveto
          -406 -253 -326 -352 -271 -174 196 308 405 253 326 352 271 174 -196 -307 vhcurveto
          endchar
        </CharString>
        <CharString name="Oacute">
          337 918 1339 -105 callgsubr
          257 1580 -83 callgsubr
        </CharString>
        <CharString name="Obreve">
          337 918 1339 -105 callgsubr
          -59 1844 -74 callgsubr
          endchar
        </CharString>
        <CharString name="Ocaron">
          337 918 1339 -105 callgsubr
          146 1580 -86 callgsubr
        </CharString>
        <CharString name="Ocircumflex">
          337 918 1339 -105 callgsubr
          298 1874 -69 callgsubr
        </CharString>
        <CharString name="Ocircumflexacute">
          337 918 1339 -105 callgsubr
          179 1807 -57 callgsubr
          109 20 rmoveto
          125 26 callgsubr
          endchar
        </CharString>
        <CharString name="Ocircumflexdotbelow">
          337 918 1339 -105 callgsubr
          298 1874 -77 callsubr
          -579 -1938 -102 callgsubr
        </CharString>
        <CharString name="Ocircumflexgrave">
          337 918 1339 -105 callgsubr
          179 1807 -57 callgsubr
          301 20 32 callgsubr
          endchar
        </CharString>
        <CharString name="Ocircumflexhookabove">
          337 918 1339 -105 callgsubr
          179 1807 -57 callgsubr
          50 148 rmoveto
          8 25 31 6 30 hhcurveto
          57 36 -27 -42 -44 -38 -32 -54 -16 hvcurveto
          49 -57 rlineto
          88 29 51 58 74 vvcurveto
          79 -66 52 -102 -32 -39 -7 -8 -17 vhcurveto
          endchar
        </CharString>
        <CharString name="Ocircumflextilde">
          337 918 1339 -105 callgsubr
          384 1852 -41 callsubr
        </CharString>
        <CharString name="Ocyrillic">
          347 923 1339 -105 callgsubr
          endchar
        </CharString>
        <CharString name="Odblgrave">
          337 918 1339 -105 callgsubr
          -3 1580 -33 callgsubr
        </CharString>
        <CharString name="Odieresis">
          337 918 1339 -105 callgsubr
          51 1634 -104 callgsubr
        </CharString>
        <CharString name="Odieresismacron">
          337 918 1339 -105 callgsubr
          48 1752 -38 callsubr
        </CharString>
        <CharString name="Odotaccent">
          337 918 1339 -105 callgsubr
          226 1647 -102 callgsubr
        </CharString>
        <CharString name="Odotaccentmacron">
          337 918 1339 -105 callgsubr
          217 1592 24 callsubr
        </CharString>
        <CharString name="Odotbelow">
          337 918 1339 -105 callgsubr
          -69 -358 -102 callgsubr
        </CharString>
        <CharString name="Ograve">
          337 918 1339 -105 callgsubr
          124 1580 -29 callsubr
        </CharString>
        <CharString name="Ohookabove">
          337 918 1339 -105 callgsubr
          56 1781 -65 callsubr
        </CharString>
        <CharString name="Ohorn">
          -89 callsubr
          endchar
        </CharString>
        <CharString name="Ohornacute">
          -89 callsubr
          -481 719 -83 callgsubr
        </CharString>
        <CharString name="Ohorndotbelow">
          -89 callsubr
          -807 -1219 -102 callgsubr
        </CharString>
        <CharString name="Ohorngrave">
          -89 callsubr
          -614 719 -29 callsubr
        </CharString>
        <CharString name="Ohornhookabove">
          -89 callsubr
          -683 920 -65 callsubr
        </CharString>
        <CharString name="Ohorntilde">
          -89 callsubr
          -400 710 -101 callgsubr
          endchar
        </CharString>
        <CharString name="Ohungarumlaut">
          337 918 1339 -105 callgsubr
          406 1580 7 callsubr
        </CharString>
        <CharString name="Oinvertedbreve">
          337 918 1339 -105 callgsubr
          494 1568 -57 callsubr
        </CharString>
        <CharString name="Omacron">
          337 918 1339 -105 callgsubr
          537 1742 -74 callsubr
        </CharString>
        <CharString name="Omacronacute">
          337 918 1339 -105 callgsubr
          510 109 callgsubr
          287 206 rmoveto
          125 26 callgsubr
          endchar
        </CharString>
        <CharString name="Omacrongrave">
          337 918 1339 -105 callgsubr
          510 109 callgsubr
          408 206 44 callsubr
          endchar
        </CharString>
        <CharString name="Omegagreek">
          378 867 hmoveto
          0 callsubr
        </CharString>
        <CharString name="Omegatonosgreek">
          547 186 5 callsubr
          709 -1443 rmoveto
          0 callsubr
        </CharString>
        <CharString name="Omicrongreek">
          337 918 1339 -105 callgsubr
          endchar
        </CharString>
        <CharString name="Omicrontonosgreek">
          476 186 5 callsubr
          730 -104 -105 callgsubr
          endchar
        </CharString>
        <CharString name="Oogonek">
          -15 callgsubr
          endchar
        </CharString>
        <CharString name="Oogonekmacron">
          -15 callgsubr
          -65 884 -74 callsubr
        </CharString>
        <CharString name="Oslash">
          337 1308 1113 rmoveto
          39 -76 21 -93 -106 vvcurveto
          -408 -252 -326 -351 -137 -113 49 88 -79 vhcurveto
          -61 89 rmoveto
          -39 76 -21 93 106 vvcurveto
          408 253 326 350 137 113 -49 -88 79 vhcurveto
          326 176 rmoveto
          -75 75 -155 -155 rlineto
          107 -102 -146 60 -175 hhcurveto
          -430 -315 -385 -481 -145 35 -126 64 -99 hvcurveto
          -164 -164 75 -75 155 155 rlineto
          -107 103 146 -60 175 hhcurveto
          429 315 385 481 145 -35 126 -64 99 hvcurveto
          endchar
        </CharString>
        <CharString name="Oslashacute">
          337 1354 1846 rmoveto
          -158 hlineto
          -304 -288 rlineto
          129 hlineto
          287 -445 rmoveto
          39 -76 21 -93 -106 vvcurveto
          -408 -252 -326 -351 -137 -113 49 88 -79 vhcurveto
          -61 89 rmoveto
          -39 76 -21 93 106 vvcurveto
          408 253 326 350 137 113 -49 -88 79 vhcurveto
          326 176 rmoveto
          -75 75 -155 -155 rlineto
          107 -102 -146 60 -175 hhcurveto
          -430 -315 -385 -481 -145 35 -126 64 -99 hvcurveto
          -164 -164 75 -75 155 155 rlineto
          -107 103 146 -60 175 hhcurveto
          429 315 385 481 145 -35 126 -64 99 hvcurveto
          endchar
        </CharString>
        <CharString name="Otilde">
          337 918 1339 -105 callgsubr
          339 1571 -101 callgsubr
          endchar
        </CharString>
        <CharString name="Otildeacute">
          337 918 1339 -105 callgsubr
          195 1853 rmoveto
          124 hlineto
          226 185 rlineto
          -142 hlineto
          -78 -471 -46 callsubr
          endchar
        </CharString>
        <CharString name="Otildedieresis">
          337 918 1339 -105 callgsubr
          325 1567 -46 callsubr
          -211 488 -10 callsubr
        </CharString>
        <CharString name="Otildemacron">
          337 918 1339 -105 callgsubr
          592 2001 91 callsubr
          616 hlineto
          -246 -343 -46 callsubr
          endchar
        </CharString>
        <CharString name="P">
          41 389 1443 -70 callgsubr
          endchar
        </CharString>
        <CharString name="Pacute">
          41 389 1443 -70 callgsubr
          491 892 -83 callgsubr
        </CharString>
        <CharString name="Pdotaccent">
          41 389 1443 -70 callgsubr
          460 959 -102 callgsubr
        </CharString>
        <CharString name="Pecyrillic">
          229 1185 62 callgsubr
          280 1318 rlineto
          824 hlineto
          -280 -1318 rlineto
          endchar
        </CharString>
        <CharString name="Phigreek">
          477 676 -58 rmoveto
          139 hlineto
          29 137 rlineto
          500 7 323 315 425 vvcurveto
          309 -198 199 -352 27 vhcurveto
          28 134 rlineto
          -7 callgsubr
          -28 -134 rlineto
          -501 -8 -322 -314 -426 vvcurveto
          -308 198 -199 352 -27 vhcurveto
          27 123 rmoveto
          -287 15 -150 161 249 vvcurveto
          351 252 256 404 3 vhcurveto
          -80 -1034 rmoveto
          220 1034 rlineto
          286 -14 150 -161 -248 vvcurveto
          -355 -251 -253 -405 -3 vhcurveto
          endchar
        </CharString>
        <CharString name="Pigreek">
          256 1198 62 callgsubr
          29 callgsubr
          822 hlineto
          -282 -1319 rlineto
          endchar
        </CharString>
        <CharString name="Psigreek">
          415 798 hmoveto
          73 345 425 15 191 176 82 381 rlinecurve
          111 526 rlineto
          -7 callgsubr
          -111 -521 -61 -288 -153 -160 -318 -3 rlinecurve
          207 972 45 callgsubr
          -207 -972 rlineto
          -231 10 -128 98 193 vvcurveto
          41 5 45 11 50 vhcurveto
          112 535 rlineto
          -7 callgsubr
          -113 -539 rlineto
          -10 -47 -5 -44 -42 vvcurveto
          -255 163 -148 308 -23 vhcurveto
          -73 -345 rlineto
          endchar
        </CharString>
        <CharString name="Q">
          337 1238 -169 rmoveto
          -125 242 rlineto
          240 144 155 290 337 vvcurveto
          375 -235 246 -353 -430 -315 -385 -481 -375 235 -246 354 84 81 16 28 74 vhcurveto
          99 -191 rlineto
          -337 273 rmoveto
          -272 -178 194 307 408 253 326 350 273 177 -194 -307 -284 -122 -244 -192 -122 hvcurveto
          -108 207 59 callsubr
          135 -260 rlineto
          -20 -57 -59 -11 -64 hhcurveto
          endchar
        </CharString>
        <CharString name="R">
          -93 callsubr
          endchar
        </CharString>
        <CharString name="Racute">
          -93 callsubr
          488 844 -83 callgsubr
        </CharString>
        <CharString name="Rcaron">
          -93 callsubr
          376 844 -86 callgsubr
        </CharString>
        <CharString name="Rcommaaccent">
          -93 callsubr
          45 -1189 -40 callgsubr
        </CharString>
        <CharString name="Rdblgrave">
          -93 callsubr
          228 844 -33 callgsubr
        </CharString>
        <CharString name="Rdotaccent">
          -93 callsubr
          456 911 -102 callgsubr
        </CharString>
        <CharString name="Rdotbelow">
          -93 callsubr
          143 -1094 -102 callgsubr
        </CharString>
        <CharString name="Rdotbelowmacron">
          -93 callsubr
          143 -1094 -103 callsubr
          624 2100 -74 callsubr
        </CharString>
        <CharString name="Rhogreek">
          41 389 1443 -70 callgsubr
          endchar
        </CharString>
        <CharString name="Rinvertedbreve">
          -93 callsubr
          724 832 -57 callsubr
        </CharString>
        <CharString name="Rlinebelow">
          -93 callsubr
          463 -956 -74 callsubr
        </CharString>
        <CharString name="S">
          59 105 416 rmoveto
          -101 callsubr
          endchar
        </CharString>
        <CharString name="Sacute">
          60 105 416 rmoveto
          -101 callsubr
          662 1142 -83 callgsubr
        </CharString>
        <CharString name="Sacutedotaccent">
          60 105 416 rmoveto
          -101 callsubr
          756 1142 rmoveto
          -16 callsubr
          -158 hlineto
          -304 -288 rlineto
          -153 44 -102 callgsubr
        </CharString>
        <CharString name="Scaron">
          60 105 416 rmoveto
          -101 callsubr
          550 1142 -86 callgsubr
        </CharString>
        <CharString name="Scarondotaccent">
          60 105 416 rmoveto
          -101 callsubr
          534 1128 42 callgsubr
        </CharString>
        <CharString name="Scedilla">
          60 708 816 rmoveto
          -192 66 -81 75 122 vvcurveto
          141 125 121 218 214 139 -118 -168 10 vhcurveto
          137 hlineto
          250 -5 -209 160 -284 hhcurveto
          -286 -200 -161 -235 -185 111 -110 241 -83 hvcurveto
          107 -37 rlineto
          186 -64 80 -73 -134 vvcurveto
          -176 -154 -105 -210 -237 -159 128 186 -17 vhcurveto
          -137 hlineto
          8 -246 198 -161 262 -27 -79 -136 rcurveline
          -14 -59 56 -1 rlineto
          102 -3 49 -26 -53 vvcurveto
          -56 -52 -31 -83 -54 -48 11 19 -43 vhcurveto
          -19 -90 rlineto
          -20 44 67 -13 62 hhcurveto
          138 94 74 114 94 -69 53 -118 1 hvcurveto
          71 118 rlineto
          311 10 174 197 223 vvcurveto
          177 -113 115 -233 78 vhcurveto
          endchar
        </CharString>
        <CharString name="Scircumflex">
          60 105 416 rmoveto
          -101 callsubr
          702 1436 -69 callgsubr
        </CharString>
        <CharString name="Scommaaccent">
          60 105 416 rmoveto
          -101 callsubr
          232 -891 -40 callgsubr
        </CharString>
        <CharString name="Sdotaccent">
          60 105 416 rmoveto
          -101 callsubr
          630 1209 -102 callgsubr
        </CharString>
        <CharString name="Sdotbelow">
          60 105 416 rmoveto
          -101 callsubr
          330 -796 -102 callgsubr
        </CharString>
        <CharString name="Sdotbelowdotaccent">
          60 105 416 rmoveto
          -101 callsubr
          330 -796 -103 callsubr
          300 2005 -102 callgsubr
        </CharString>
        <CharString name="Shacyrillic">
          678 85 hmoveto
          1548 hlineto
          -2 callsubr
          -281 -1319 rlineto
          -565 hlineto
          29 callgsubr
          -140 63 callgsubr
          -565 hlineto
          29 callgsubr
          -7 callgsubr
          endchar
        </CharString>
        <CharString name="Shchacyrillic">
          746 1755 -285 rmoveto
          87 409 129 callsubr
          29 callgsubr
          -139 63 callgsubr
          -565 hlineto
          29 callgsubr
          -140 63 callgsubr
          -565 hlineto
          281 -8 callsubr
          1604 127 callsubr
        </CharString>
        <CharString name="Sigmagreek">
          104 256 127 rmoveto
          523 611 4 16 -261 562 1 4 rlineto
          832 hlineto
          26 123 rlineto
          -999 hlineto
          -22 -104 275 -587 -565 -653 -21 -99 rlineto
          1045 hlineto
          26 123 rlineto
          -864 hlineto
          endchar
        </CharString>
        <CharString name="Softsigncyrillic">
          38 693 763 rmoveto
          198 133 -94 -180 -216 -176 -151 -238 hvcurveto
          -360 hlineto
          137 641 rlineto
          -302 -763 rmoveto
          538 hlineto
          309 234 201 296 238 -183 150 -263 hvcurveto
          -307 hlineto
          118 558 rlineto
          -7 callgsubr
          endchar
        </CharString>
        <CharString name="T">
          34 607 66 callgsubr
        </CharString>
        <CharString name="Taugreek">
          34 607 66 callgsubr
        </CharString>
        <CharString name="Tbar">
          34 1370 1319 rmoveto
          26 124 rlineto
          -1104 hlineto
          -26 -124 rlineto
          482 hlineto
          -113 -534 rlineto
          -360 hlineto
          -26 -124 rlineto
          359 hlineto
          -140 -661 rlineto
          139 hlineto
          141 661 rlineto
          384 hlineto
          26 124 rlineto
          -384 hlineto
          114 534 rlineto
          endchar
        </CharString>
        <CharString name="Tcaron">
          34 607 -52 callsubr
          356 1558 -86 callgsubr
        </CharString>
        <CharString name="Tcedilla">
          34 292 1443 rmoveto
          -26 -124 rlineto
          482 hlineto
          -280 -1319 rlineto
          33 hlineto
          -89 -154 -14 -59 56 -1 rlineto
          102 -3 49 -26 -53 vvcurveto
          -56 -52 -31 -83 -54 -48 11 19 -43 vhcurveto
          -19 -90 rlineto
          -20 44 67 -13 62 hhcurveto
          138 94 74 114 94 -69 53 -118 1 hvcurveto
          84 140 1 9 279 1310 rlineto
          482 hlineto
          26 124 rlineto
          endchar
        </CharString>
        <CharString name="Tcircumflexbelow">
          34 607 -52 callsubr
          79 -165 -64 callsubr
        </CharString>
        <CharString name="Tcommaaccent">
          34 607 -52 callsubr
          -88 -475 -40 callgsubr
        </CharString>
        <CharString name="Tdotaccent">
          34 607 -52 callsubr
          436 1625 -102 callgsubr
        </CharString>
        <CharString name="Tdotbelow">
          34 607 -52 callsubr
          10 -380 -102 callgsubr
        </CharString>
        <CharString name="Tecyrillic">
          44 612 66 callgsubr
        </CharString>
        <CharString name="Thetagreek">
          382 1175 661 rmoveto
          26 122 rlineto
          -643 hlineto
          -26 -122 rlineto
          257 -683 rmoveto
          429 318 385 481 375 -238 246 -354 -429 -319 -385 -481 -375 239 -246 354 hvcurveto
          607 860 rmoveto
          -408 -255 -326 -351 -272 -182 194 307 408 256 326 351 272 181 -194 -307 vhcurveto
          endchar
        </CharString>
        <CharString name="Thorn">
          19 77 hmoveto
          137 hlineto
          74 351 rlineto
          369 hlineto
          333 214 190 279 200 -155 149 -232 hvcurveto
          -355 hlineto
          58 274 59 callsubr
          52 -397 rmoveto
          337 hlineto
          191 98 -100 -139 -203 -152 -131 -258 hvcurveto
          -337 hlineto
          endchar
        </CharString>
        <CharString name="Tlinebelow">
          34 607 -52 callsubr
          330 -242 -74 callsubr
        </CharString>
        <CharString name="Tsecyrillic">
          321 1307 -285 78 callsubr
          281 1318 45 callgsubr
          -308 -25 callsubr
          1153 127 callsubr
        </CharString>
        <CharString name="Tshecyrillic">
          502 1140 766 rmoveto
          206 104 -133 -241 -51 hvcurveto
          -83 -392 80 callgsubr
          83 386 rlineto
          311 66 -152 193 -287 hhcurveto
          -163 -130 -71 -76 -89 hvcurveto
          -13 hlineto
          122 576 rlineto
          483 -30 callsubr
          -1104 hlineto
          -27 -124 rlineto
          482 hlineto
          -280 -1319 80 callgsubr
          121 568 rlineto
          95 72 156 103 179 hhcurveto
          endchar
        </CharString>
        <CharString name="U">
          -103 callgsubr
          endchar
        </CharString>
        <CharString name="Uacute">
          -103 callgsubr
          346 1580 -83 callgsubr
        </CharString>
        <CharString name="Ubreve">
          -103 callgsubr
          29 1844 -74 callgsubr
          endchar
        </CharString>
        <CharString name="Ucaron">
          -103 callgsubr
          234 1580 -86 callgsubr
        </CharString>
        <CharString name="Ucircumflex">
          -103 callgsubr
          386 1874 -69 callgsubr
        </CharString>
        <CharString name="Ucircumflexbelow">
          -103 callgsubr
          -20 -143 -64 callsubr
        </CharString>
        <CharString name="Ucyrillic">
          -73 callgsubr
          endchar
        </CharString>
        <CharString name="Udblgrave">
          -103 callgsubr
          86 1580 -33 callgsubr
        </CharString>
        <CharString name="Udieresis">
          -103 callgsubr
          139 1634 -104 callgsubr
        </CharString>
        <CharString name="Udieresisacute">
          -103 callgsubr
          252 1827 -29 callgsubr
        </CharString>
        <CharString name="Udieresisbelow">
          -103 callgsubr
          -260 -363 -47 callsubr
          endchar
        </CharString>
        <CharString name="Udieresiscaron">
          -103 callgsubr
          274 1817 19 callsubr
        </CharString>
        <CharString name="Udieresisgrave">
          -103 callgsubr
          399 1827 30 callgsubr
        </CharString>
        <CharString name="Udieresismacron">
          -103 callgsubr
          136 1752 -38 callsubr
        </CharString>
        <CharString name="Udotbelow">
          -103 callgsubr
          -89 -358 -102 callgsubr
        </CharString>
        <CharString name="Ugrave">
          -103 callgsubr
          213 1580 -29 callsubr
        </CharString>
        <CharString name="Uhookabove">
          -103 callgsubr
          144 1781 -65 callsubr
        </CharString>
        <CharString name="Uhorn">
          -87 callgsubr
          endchar
        </CharString>
        <CharString name="Uhornacute">
          -87 callgsubr
          354 1581 -83 callgsubr
        </CharString>
        <CharString name="Uhorndotbelow">
          -87 callgsubr
          -105 -357 -102 callgsubr
        </CharString>
        <CharString name="Uhorngrave">
          -87 callgsubr
          221 1581 -29 callsubr
        </CharString>
        <CharString name="Uhornhookabove">
          -87 callgsubr
          153 1782 -65 callsubr
        </CharString>
        <CharString name="Uhorntilde">
          -87 callgsubr
          436 1572 -101 callgsubr
          endchar
        </CharString>
        <CharString name="Uhungarumlaut">
          -103 callgsubr
          495 1580 7 callsubr
        </CharString>
        <CharString name="Uinvertedbreve">
          -103 callgsubr
          582 1568 -57 callsubr
        </CharString>
        <CharString name="Umacron">
          -103 callgsubr
          625 1742 -74 callsubr
        </CharString>
        <CharString name="Umacrondieresis">
          -103 callgsubr
          598 1621 38 callgsubr
        </CharString>
        <CharString name="Uogonek">
          245 849 -394 rmoveto
          20 93 rlineto
          -9 -18 -24 -4 -29 hhcurveto
          -63 -41 33 52 85 117 90 173 92 hvcurveto
          157 83 117 133 46 211 209 978 rcurveline
          -140 hlineto
          -204 -952 rlineto
          -241 -51 -181 -146 -233 hhcurveto
          -244 -129 124 196 -4 hvcurveto
          -1 40 5 47 9 45 187 887 rcurveline
          73 callsubr
          -44 -5 -43 1 -45 rlinecurve
          -253 1 177 -187 318 hhcurveto
          30 39 3 5 20 hvcurveto
          -3 vlineto
          -138 -81 -59 -78 -89 75 callsubr
          endchar
        </CharString>
        <CharString name="Upsilondieresisgreek">
          65 624 hmoveto
          -84 callgsubr
          256 1612 -104 callgsubr
        </CharString>
        <CharString name="Upsilongreek">
          65 624 hmoveto
          -84 callgsubr
          endchar
        </CharString>
        <CharString name="Upsilontonosgreek">
          442 284 5 callsubr
          576 -1443 55 callsubr
        </CharString>
        <CharString name="Uring">
          -103 callgsubr
          314 1581 -89 callgsubr
        </CharString>
        <CharString name="Ushortcyrillic">
          -73 callgsubr
          380 1830 -79 callsubr
        </CharString>
        <CharString name="Utilde">
          -103 callgsubr
          427 1571 -101 callgsubr
          endchar
        </CharString>
        <CharString name="Utildeacute">
          -103 callgsubr
          283 1853 rmoveto
          124 hlineto
          226 185 rlineto
          -142 hlineto
          -78 -471 -46 callsubr
          endchar
        </CharString>
        <CharString name="Utildebelow">
          -103 callgsubr
          32 -395 -101 callgsubr
          endchar
        </CharString>
        <CharString name="V">
          109 22 callsubr
          endchar
        </CharString>
        <CharString name="Vdotbelow">
          108 22 callsubr
          11 -380 -102 callgsubr
        </CharString>
        <CharString name="Vecyrillic">
          112 649 -86 callsubr
          endchar
        </CharString>
        <CharString name="Vtilde">
          108 22 callsubr
          543 1549 -101 callgsubr
          endchar
        </CharString>
        <CharString name="W">
          691 1118 -76 callsubr
          endchar
        </CharString>
        <CharString name="Wacute">
          691 1118 -76 callsubr
          739 1558 -83 callgsubr
        </CharString>
        <CharString name="Wcircumflex">
          691 1118 -76 callsubr
          779 1852 -69 callgsubr
        </CharString>
        <CharString name="Wdieresis">
          691 1118 -76 callsubr
          532 1612 -104 callgsubr
        </CharString>
        <CharString name="Wdotaccent">
          691 1118 -76 callsubr
          707 1625 -102 callgsubr
        </CharString>
        <CharString name="Wdotbelow">
          691 1118 -76 callsubr
          285 -380 -102 callgsubr
        </CharString>
        <CharString name="Wgrave">
          691 1118 -76 callsubr
          605 1558 -29 callsubr
        </CharString>
        <CharString name="X">
          101 -23 38 callsubr
        </CharString>
        <CharString name="Xacyrillic">
          111 -18 38 callsubr
        </CharString>
        <CharString name="Xdieresis">
          101 -23 hmoveto
          -55 callsubr
          117 881 -104 callgsubr
        </CharString>
        <CharString name="Xdotaccent">
          101 -23 hmoveto
          -55 callsubr
          292 894 -102 callgsubr
        </CharString>
        <CharString name="Xigreek">
          109 360 98 callgsubr
          -27 -128 rlineto
          1043 hlineto
          27 128 rlineto
          -241 -768 rmoveto
          27 127 rlineto
          -887 hlineto
          -28 -127 rlineto
          -193 -547 rmoveto
          -27 -128 rlineto
          1043 hlineto
          26 128 rlineto
          endchar
        </CharString>
        <CharString name="Y">
          65 624 hmoveto
          -84 callgsubr
          endchar
        </CharString>
        <CharString name="Yacute">
          65 624 hmoveto
          -84 callgsubr
          463 1558 -83 callgsubr
        </CharString>
        <CharString name="Ycircumflex">
          65 624 hmoveto
          -84 callgsubr
          503 1852 -69 callgsubr
        </CharString>
        <CharString name="Ydieresis">
          65 624 hmoveto
          -84 callgsubr
          256 1612 -104 callgsubr
        </CharString>
        <CharString name="Ydotaccent">
          65 624 hmoveto
          -84 callgsubr
          431 1625 -102 callgsubr
        </CharString>
        <CharString name="Ydotbelow">
          65 624 hmoveto
          -84 callgsubr
          6 -380 -102 callgsubr
        </CharString>
        <CharString name="Yericyrillic">
          -68 callsubr
          endchar
        </CharString>
        <CharString name="Ygrave">
          65 624 hmoveto
          -84 callgsubr
          330 1558 -29 callsubr
        </CharString>
        <CharString name="Yhookabove">
          65 624 hmoveto
          -84 callgsubr
          261 1759 -65 callsubr
        </CharString>
        <CharString name="Yicyrillic">
          -731 224 hmoveto
          -2 callsubr
          -307 -1443 rlineto
          259 1612 -104 callgsubr
        </CharString>
        <CharString name="Yicyrillic.1">
          -259 920 1612 rmoveto
          50 41 41 50 51 -41 40 -50 -50 -42 -40 -51 -50 42 -41 50 hvcurveto
          -341 0 rmoveto
          50 42 41 50 51 -42 40 -50 -49 -42 -40 -51 -50 42 -41 49 hvcurveto
          451 -287 rmoveto
          25 118 rlineto
          -288 hlineto
          -139 hlineto
          -288 hlineto
          -25 -118 rlineto
          288 hlineto
          -257 -1207 rlineto
          -288 hlineto
          -25 -118 rlineto
          288 hlineto
          139 hlineto
          288 hlineto
          25 118 rlineto
          -288 hlineto
          257 1207 rlineto
          endchar
        </CharString>
        <CharString name="Ymacron">
          65 624 hmoveto
          -84 callgsubr
          742 1720 -74 callsubr
        </CharString>
        <CharString name="Ytilde">
          65 624 hmoveto
          -84 callgsubr
          544 1549 -101 callgsubr
          endchar
        </CharString>
        <CharString name="Z">
          72 31 hmoveto
          -62 callsubr
          endchar
        </CharString>
        <CharString name="Zacute">
          72 31 hmoveto
          -62 callsubr
          895 1459 -83 callgsubr
        </CharString>
        <CharString name="Zcaron">
          72 31 hmoveto
          -62 callsubr
          784 1459 -86 callgsubr
        </CharString>
        <CharString name="Zcircumflex">
          72 31 hmoveto
          -62 callsubr
          936 1753 -69 callgsubr
        </CharString>
        <CharString name="Zdotaccent">
          72 31 hmoveto
          -62 callsubr
          864 1526 -102 callgsubr
        </CharString>
        <CharString name="Zdotbelow">
          72 31 hmoveto
          -62 callsubr
          476 -479 -102 callgsubr
        </CharString>
        <CharString name="Zecyrillic">
          19 455 683 -81 callgsubr
          endchar
        </CharString>
        <CharString name="Zetagreek">
          72 31 hmoveto
          -62 callsubr
          endchar
        </CharString>
        <CharString name="Zhecyrillic">
          754 985 -45 callsubr
          endchar
        </CharString>
        <CharString name="Zlinebelow">
          72 31 hmoveto
          -62 callsubr
          796 -341 -74 callsubr
        </CharString>
        <CharString name="a">
          -107 callsubr
          endchar
        </CharString>
        <CharString name="a.1">
          -31 528 -106 callsubr
          endchar
        </CharString>
        <CharString name="aacute">
          -107 callsubr
          339 1239 -78 callgsubr
          endchar
        </CharString>
        <CharString name="aacute.1">
          -31 528 -106 callsubr
          -15 1222 -78 callgsubr
          endchar
        </CharString>
        <CharString name="abreve">
          -107 callsubr
          28 1518 -68 callgsubr
        </CharString>
        <CharString name="abreve.1">
          -31 528 -106 callsubr
          -326 3 callsubr
        </CharString>
        <CharString name="abreveacute">
          -107 callsubr
          255 1527 rmoveto
          120 hlineto
          302 300 59 callsubr
          85 -320 -82 callgsubr
          endchar
        </CharString>
        <CharString name="abreveacute.1">
          -31 528 -106 callsubr
          -99 1510 rmoveto
          120 hlineto
          302 300 59 callsubr
          85 -320 -82 callgsubr
          endchar
        </CharString>
        <CharString name="abrevedotbelow">
          -107 callsubr
          28 1518 -79 callgsubr
          -114 -1881 -102 callgsubr
        </CharString>
        <CharString name="abrevedotbelow.1">
          -31 528 -106 callsubr
          -326 1501 -79 callgsubr
          -147 -1881 -102 callgsubr
        </CharString>
        <CharString name="abrevegrave">
          -107 callsubr
          403 1529 -6 callsubr
          326 -22 -82 callgsubr
          endchar
        </CharString>
        <CharString name="abrevegrave.1">
          -31 528 -106 callsubr
          49 1512 -6 callsubr
          326 -22 -82 callgsubr
          endchar
        </CharString>
        <CharString name="abrevehookabove">
          -107 callsubr
          206 1704 rmoveto
          13 32 34 7 36 hhcurveto
          49 32 -26 -39 -44 -48 -51 -61 -20 hvcurveto
          44 -60 rlineto
          91 29 71 84 83 vvcurveto
          76 -59 48 -95 -37 -48 -11 -13 -24 vhcurveto
          403 -273 -82 callgsubr
          endchar
        </CharString>
        <CharString name="abrevehookabove.1">
          -31 528 -106 callsubr
          -148 1687 rmoveto
          13 32 34 7 36 hhcurveto
          49 32 -26 -39 -44 -48 -51 -61 -20 hvcurveto
          44 -60 rlineto
          91 29 71 84 83 vvcurveto
          76 -59 48 -95 -37 -48 -11 -13 -24 vhcurveto
          403 -273 -82 callgsubr
          endchar
        </CharString>
        <CharString name="abrevetilde">
          -107 callsubr
          626 1507 -31 callgsubr
        </CharString>
        <CharString name="abrevetilde.1">
          -31 528 -106 callsubr
          272 1490 -31 callgsubr
        </CharString>
        <CharString name="acaron">
          -107 callsubr
          342 1239 -82 callsubr
        </CharString>
        <CharString name="acaron.1">
          -31 528 -106 callsubr
          -12 1222 -82 callsubr
        </CharString>
        <CharString name="acircumflex">
          -107 callsubr
          398 1541 -59 callsubr
        </CharString>
        <CharString name="acircumflex.1">
          -31 528 -106 callsubr
          44 9 callsubr
        </CharString>
        <CharString name="acircumflexacute">
          -107 callsubr
          384 1513 11 callgsubr
        </CharString>
        <CharString name="acircumflexacute.1">
          -31 528 -106 callsubr
          30 1496 11 callgsubr
        </CharString>
        <CharString name="acircumflexdotbelow">
          -107 callsubr
          398 1541 -77 callgsubr
          -586 -1602 -102 callgsubr
        </CharString>
        <CharString name="acircumflexdotbelow.1">
          -31 528 -106 callsubr
          44 1524 -77 callgsubr
          -619 -1602 -102 callgsubr
        </CharString>
        <CharString name="acircumflexgrave">
          -107 callsubr
          663 1529 -6 callsubr
          -176 -16 -81 callsubr
          endchar
        </CharString>
        <CharString name="acircumflexgrave.1">
          -31 528 -106 callsubr
          309 1512 -6 callsubr
          -176 -16 -81 callsubr
          endchar
        </CharString>
        <CharString name="acircumflexhookabove">
          -107 callsubr
          415 1714 -48 callsubr
        </CharString>
        <CharString name="acircumflexhookabove.1">
          -31 528 -106 callsubr
          61 1697 -48 callsubr
        </CharString>
        <CharString name="acircumflextilde">
          -107 callsubr
          384 1513 -55 callgsubr
        </CharString>
        <CharString name="acircumflextilde.1">
          -31 528 -106 callsubr
          30 1496 -55 callgsubr
        </CharString>
        <CharString name="acute">
          -154 637 1222 -78 callgsubr
          endchar
        </CharString>
        <CharString name="acutecmb">
          261 1222 -78 callgsubr
          endchar
        </CharString>
        <CharString name="acutecmb.short">
          337 1558 -83 callgsubr
        </CharString>
        <CharString name="acutedotaccentcmb">
          363 1222 60 callgsubr
        </CharString>
        <CharString name="acutedotaccentcmb.short">
          433 1558 rmoveto
          -16 callsubr
          -158 hlineto
          -304 -288 rlineto
          -153 44 -102 callgsubr
        </CharString>
        <CharString name="acyrillic">
          -107 callsubr
          endchar
        </CharString>
        <CharString name="acyrillic.1">
          -40 515 -106 callsubr
          endchar
        </CharString>
        <CharString name="adblgrave">
          -107 callsubr
          196 1239 -42 callgsubr
        </CharString>
        <CharString name="adblgrave.1">
          -31 528 -106 callsubr
          -158 1222 -42 callgsubr
        </CharString>
        <CharString name="adieresis">
          -153 435 -30 callgsubr
        </CharString>
        <CharString name="adieresis.1">
          -31 528 -106 callsubr
          -227 1227 -104 callgsubr
        </CharString>
        <CharString name="adieresismacron">
          -107 callsubr
          127 1226 -37 callsubr
        </CharString>
        <CharString name="adieresismacron.1">
          -31 528 -106 callsubr
          -227 1209 -37 callsubr
        </CharString>
        <CharString name="adotaccent">
          -107 callsubr
          299 1239 -102 callgsubr
        </CharString>
        <CharString name="adotaccent.1">
          -31 528 -106 callsubr
          -55 1222 -102 callgsubr
        </CharString>
        <CharString name="adotbelow">
          -107 callsubr
          13 -363 -102 callgsubr
        </CharString>
        <CharString name="adotbelow.1">
          -31 528 -106 callsubr
          -374 -380 -102 callgsubr
        </CharString>
        <CharString name="adotmacron">
          -107 callsubr
          298 1219 3 callgsubr
        </CharString>
        <CharString name="adotmacron.1">
          -31 528 -106 callsubr
          -56 1202 3 callgsubr
        </CharString>
        <CharString name="ae">
          603 1244 -92 callsubr
          endchar
        </CharString>
        <CharString name="aeacute">
          603 1244 -92 callsubr
          674 1125 -78 callgsubr
          endchar
        </CharString>
        <CharString name="aemacron">
          603 1244 -92 callsubr
          924 1284 -72 callgsubr
        </CharString>
        <CharString name="agrave">
          -107 callsubr
          343 1239 -34 callgsubr
        </CharString>
        <CharString name="agrave.1">
          -31 528 -106 callsubr
          -11 1222 -34 callgsubr
        </CharString>
        <CharString name="ahookabove">
          -107 callsubr
          168 1441 -63 callsubr
        </CharString>
        <CharString name="ahookabove.1">
          -31 528 -106 callsubr
          -186 1424 -63 callsubr
        </CharString>
        <CharString name="ainvertedbreve">
          -107 callsubr
          579 1221 -59 callgsubr
        </CharString>
        <CharString name="ainvertedbreve.1">
          -31 528 -106 callsubr
          225 1204 -59 callgsubr
        </CharString>
        <CharString name="alphagreek">
          -18 callsubr
          endchar
        </CharString>
        <CharString name="alphatonosgreek">
          -18 callsubr
          167 1091 16 callgsubr
        </CharString>
        <CharString name="amacron">
          -107 callsubr
          589 1398 -72 callgsubr
        </CharString>
        <CharString name="amacron.1">
          -31 528 -106 callsubr
          235 1381 -72 callgsubr
        </CharString>
        <CharString name="ampersand">
          259 554 1129 rmoveto
          127 115 106 138 124 85 -72 -109 -117 -102 -120 -240 -80 vhcurveto
          -86 121 -34 74 70 vvcurveto
          15 -1038 rmoveto
          -203 -132 121 161 135 100 114 195 75 hvcurveto
          83 33 342 -508 rlineto
          -90 -114 -144 -41 -127 hhcurveto
          532 -91 rmoveto
          162 hlineto
          -142 209 119 125 86 166 22 190 rlinecurve
          10 71 rlineto
          -129 hlineto
          -9 -65 -17 -151 -63 -134 -89 -99 rlinecurve
          -318 464 rlineto
          291 103 123 149 167 vvcurveto
          159 -140 119 -194 -222 -169 -155 -187 -86 38 -90 92 -132 vhcurveto
          -85 -34 rlineto
          -250 -100 -120 -142 -186 vvcurveto
          -218 207 -168 260 170 159 54 95 125 vhcurveto
          endchar
        </CharString>
        <CharString name="anoteleia">
          -636 345 582 25 callsubr
          endchar
        </CharString>
        <CharString name="aogonek">
          -153 433 103 rmoveto
          -133 -89 70 105 123 106 77 183 10 hvcurveto
          313 17 -31 -141 rlineto
          -153 -33 -142 -108 -174 hhcurveto
          310 -487 rmoveto
          20 92 rlineto
          -8 -19 -25 -4 -28 hhcurveto
          -63 -40 32 51 73 90 79 153 60 hvcurveto
          5 2 146 685 rlineto
          6 24 2 29 36 vvcurveto
          170 -145 114 -217 -226 -170 -123 -187 -33 vhcurveto
          138 hlineto
          120 26 105 73 150 hhcurveto
          149 90 -70 -115 -26 -2 -18 -4 -19 hvcurveto
          -16 -74 -328 -18 rlineto
          -276 -15 -154 -117 -198 vvcurveto
          -158 137 -117 186 146 122 61 103 72 vhcurveto
          3 hlineto
          -29 -138 rlineto
          -167 -83 -79 -88 -101 vvcurveto
          -86 71 -60 105 41 42 8 11 16 vhcurveto
          endchar
        </CharString>
        <CharString name="aogonek.1">
          -31 528 100 rmoveto
          -173 -109 128 200 281 170 230 225 177 117 -130 -190 -288 -168 -231 -239 hvcurveto
          334 -481 rmoveto
          19 92 rlineto
          -7 -19 -26 -4 -26 hhcurveto
          -64 -39 32 51 71 82 78 154 59 hvcurveto
          8 3 222 1046 rlineto
          -128 hlineto
          -53 -256 rlineto
          -6 hlineto
          162 -31 -136 111 -180 hhcurveto
          -297 -229 -285 -349 -264 152 -176 234 146 145 89 128 73 hvcurveto
          4 hlineto
          -40 -186 rlineto
          -164 -80 -76 -86 -100 vvcurveto
          -87 71 -59 106 39 42 7 10 17 vhcurveto
          endchar
        </CharString>
        <CharString name="approxequal">
          65 903 620 -5 callsubr
        </CharString>
        <CharString name="approxequal.uc">
          65 934 765 -5 callsubr
        </CharString>
        <CharString name="aring">
          -107 callsubr
          299 1173 -89 callgsubr
        </CharString>
        <CharString name="aring.1">
          -31 528 -106 callsubr
          -55 1156 -89 callgsubr
        </CharString>
        <CharString name="aringacute">
          -107 callsubr
          301 1638 -17 callgsubr
        </CharString>
        <CharString name="aringacute.1">
          -31 528 -106 callsubr
          -53 1621 -17 callgsubr
        </CharString>
        <CharString name="aringbelow">
          -107 callsubr
          6 -459 -89 callgsubr
        </CharString>
        <CharString name="aringbelow.1">
          -31 528 -106 callsubr
          -381 -476 -89 callgsubr
        </CharString>
        <CharString name="asciicircum">
          -304 640 1303 rmoveto
          12 hlineto
          129 -493 rlineto
          128 hlineto
          -168 617 98 callsubr
          -430 -617 rlineto
          131 hlineto
          endchar
        </CharString>
        <CharString name="asciitilde">
          66 865 454 rmoveto
          143 118 114 197 25 hvcurveto
          -130 hlineto
          -120 -21 -51 -68 -81 -120 -50 231 -187 hhcurveto
          -145 -120 -117 -194 -23 hvcurveto
          130 hlineto
          119 21 51 69 81 120 50 -231 189 hhcurveto
          endchar
        </CharString>
        <CharString name="asterisk">
          -179 931 857 rmoveto
          59 79 -243 171 296 116 -35 94 -283 -130 60 299 -100 10 -46 -309 -235 189 -58 -80 236 -168 -290 -114 35 -94 286 130 -60 -301 101 -10 45 303 rlineto
          endchar
        </CharString>
        <CharString name="asterisk.uc">
          65 1094 334 rmoveto
          69 90 -376 266 459 178 -40 109 -438 -193 89 459 -114 12 -72 -473 -363 283 -69 -89 373 -265 -451 -172 41 -111 440 197 -90 -462 113 -12 72 460 rlineto
          endchar
        </CharString>
        <CharString name="at">
          618 1050 1436 -32 callsubr
        </CharString>
        <CharString name="at.uc">
          618 1076 1560 -32 callsubr
        </CharString>
        <CharString name="atilde">
          -107 callsubr
          425 1245 -101 callgsubr
          endchar
        </CharString>
        <CharString name="atilde.1">
          -31 528 -106 callsubr
          71 1228 -101 callgsubr
          endchar
        </CharString>
        <CharString name="austral">
          65 1009 hmoveto
          136 hlineto
          -65 427 rlineto
          122 hlineto
          23 105 rlineto
          -160 hlineto
          -30 189 rlineto
          229 hlineto
          23 106 rlineto
          -267 hlineto
          -94 616 70 callsubr
          -356 -616 rlineto
          -266 hlineto
          -22 -106 rlineto
          228 hlineto
          -109 -189 rlineto
          -159 hlineto
          -22 -105 rlineto
          121 hlineto
          -247 -427 rlineto
          150 hlineto
          241 427 rlineto
          598 hlineto
          -128 837 rmoveto
          12 hlineto
          63 -437 rlineto
          -323 hlineto
          363 -295 rmoveto
          -527 hlineto
          106 189 rlineto
          394 hlineto
          endchar
        </CharString>
        <CharString name="b">
          -32 -56 callgsubr
          endchar
        </CharString>
        <CharString name="backslash">
          -520 352 -305 108 callgsubr
        </CharString>
        <CharString name="backslash.uc">
          -520 384 -151 108 callgsubr
        </CharString>
        <CharString name="baht">
          65 564 121 rmoveto
          121 567 rlineto
          194 -6 104 -87 -155 vvcurveto
          -182 -167 -137 -224 vhcurveto
          -363 0 rmoveto
          121 567 rlineto
          231 hlineto
          -121 -567 rlineto
          24 1201 rmoveto
          231 hlineto
          -109 -515 rlineto
          -231 hlineto
          444 513 rmoveto
          159 -13 77 -73 -130 vvcurveto
          -166 -135 -120 -210 -10 vhcurveto
          154 -52 rmoveto
          200 36 132 149 191 vvcurveto
          183 -132 116 -219 11 vhcurveto
          33 157 rlineto
          -104 hlineto
          -33 -156 rlineto
          -369 hlineto
          -307 -1443 rlineto
          369 hlineto
          -32 -153 rlineto
          104 hlineto
          32 153 rlineto
          58 hlineto
          310 221 189 262 154 -108 110 -158 28 hvcurveto
          endchar
        </CharString>
        <CharString name="bar">
          -520 252 -305 93 callsubr
        </CharString>
        <CharString name="bar.uc">
          -520 285 -151 93 callsubr
        </CharString>
        <CharString name="bdotaccent">
          -31 -56 callgsubr
          -106 1524 -102 callgsubr
        </CharString>
        <CharString name="bdotbelow">
          -31 -56 callgsubr
          -135 -481 -102 callgsubr
        </CharString>
        <CharString name="becyrillic">
          -52 688 1035 rmoveto
          -151 -123 -64 -135 -93 hvcurveto
          -12 hlineto
          94 299 127 135 261 7 rrcurveto
          39 90 4 3 19 hvcurveto
          111 6 82 16 44 24 25 124 rcurveline
          -48 -23 -106 -21 -89 -5 rrcurveto
          -1 -19 -92 -5 -34 hhcurveto
          -361 -12 -168 -185 -110 -396 rrcurveto
          -30 -105 -20 -112 -109 vvcurveto
          -304 168 -193 263 316 217 257 361 256 -161 178 -239 vhcurveto
          -124 -934 rmoveto
          -185 -122 134 200 277 163 204 235 184 110 -129 -213 -261 -169 -212 -216 hvcurveto
          endchar
        </CharString>
        <CharString name="betagreek">
          -12 285 1021 rmoveto
          -291 -1366 rlineto
          132 hlineto
          126 598 rlineto
          5 hlineto
          -159 34 153 -111 182 hhcurveto
          317 169 219 247 167 -82 118 -185 45 hvcurveto
          3 vlineto
          181 53 93 134 173 vvcurveto
          193 -146 125 -223 -257 -145 -139 -300 -63 vhcurveto
          254 -306 rmoveto
          119 hlineto
          203 120 -104 -175 -197 -156 -138 -190 -194 -146 122 183 27 6 47 10 47 hvcurveto
          103 482 rlineto
          233 49 120 101 156 hhcurveto
          166 87 -88 -135 -169 -129 -117 -192 hvcurveto
          -106 hlineto
          endchar
        </CharString>
        <CharString name="bitcoin">
          65 267 148 rmoveto
          114 535 rlineto
          287 hlineto
          200 107 -82 -150 -174 -159 -129 -217 hvcurveto
          -88 1145 rmoveto
          254 hlineto
          190 88 -66 -138 -169 -145 -123 -221 hvcurveto
          -272 hlineto
          454 -48 rmoveto
          188 33 132 150 182 vvcurveto
          160 -99 104 -176 26 vhcurveto
          44 203 rlineto
          -98 hlineto
          -42 -197 rlineto
          -153 hlineto
          41 197 rlineto
          -98 hlineto
          -42 -197 rlineto
          -153 hlineto
          -294 -1379 rlineto
          154 hlineto
          -42 -196 rlineto
          98 hlineto
          41 196 rlineto
          154 hlineto
          -41 -196 rlineto
          98 hlineto
          41 196 rlineto
          293 4 208 178 249 vvcurveto
          146 -104 103 -153 26 vhcurveto
          endchar
        </CharString>
        <CharString name="blinebelow">
          -31 -56 callgsubr
          185 -343 -74 callsubr
        </CharString>
        <CharString name="braceleft">
          -520 245 273 -13 callsubr
        </CharString>
        <CharString name="braceleft.uc">
          -520 277 425 -13 callsubr
        </CharString>
        <CharString name="braceright">
          -520 518 864 -13 callgsubr
        </CharString>
        <CharString name="braceright.uc">
          -520 551 1016 -13 callgsubr
        </CharString>
        <CharString name="bracketleft">
          -520 451 98 callgsubr
          -372 -1748 rlineto
          409 hlineto
          23 105 rlineto
          -281 hlineto
          327 1537 rlineto
          281 hlineto
          23 106 rlineto
          endchar
        </CharString>
        <CharString name="bracketleft.uc">
          -520 483 1595 rmoveto
          -372 -1748 rlineto
          409 hlineto
          23 105 rlineto
          -281 hlineto
          327 1537 rlineto
          281 hlineto
          23 106 rlineto
          endchar
        </CharString>
        <CharString name="bracketright">
          -520 311 -305 69 callgsubr
        </CharString>
        <CharString name="bracketright.uc">
          -520 343 -153 69 callgsubr
        </CharString>
        <CharString name="breve">
          -137 472 3 callsubr
        </CharString>
        <CharString name="breveacutecmb">
          179 1521 rmoveto
          120 hlineto
          302 300 59 callsubr
          85 -320 -82 callgsubr
          endchar
        </CharString>
        <CharString name="breveacutecmb.short">
          231 1805 rmoveto
          124 hlineto
          244 211 98 callsubr
          -183 -470 -39 callsubr
        </CharString>
        <CharString name="brevebelowcmb">
          -398 -156 9 callgsubr
        </CharString>
        <CharString name="brevecmb">
          -50 3 callsubr
        </CharString>
        <CharString name="brevecmb.short">
          22 1822 -74 callgsubr
          endchar
        </CharString>
        <CharString name="brevecyrillic">
          -197 428 1513 -88 callgsubr
        </CharString>
        <CharString name="brevecyrillic.short">
          8 1820 -79 callsubr
        </CharString>
        <CharString name="brevegravecmb">
          327 1523 -6 callsubr
          326 -22 -82 callgsubr
          endchar
        </CharString>
        <CharString name="brevegravecmb.short">
          391 1805 28 callsubr
        </CharString>
        <CharString name="brevehookabovecmb">
          130 1698 rmoveto
          13 32 34 7 36 hhcurveto
          49 32 -26 -39 -44 -48 -51 -61 -20 hvcurveto
          44 -60 rlineto
          91 29 71 84 83 vvcurveto
          76 -59 48 -95 -37 -48 -11 -13 -24 vhcurveto
          403 -273 -82 callgsubr
          endchar
        </CharString>
        <CharString name="brevehookabovecmb.short">
          160 1985 rmoveto
          8 27 32 6 34 hhcurveto
          63 36 -29 -44 -47 -41 -36 -61 -15 hvcurveto
          56 -62 rlineto
          92 30 55 64 79 vvcurveto
          83 -71 58 -108 -32 -43 -7 -8 -19 vhcurveto
          95 -519 -39 callsubr
        </CharString>
        <CharString name="brevetildecmb">
          550 1501 -31 callgsubr
        </CharString>
        <CharString name="brevetildecmb.short">
          469 1829 rmoveto
          100 82 76 127 23 hvcurveto
          -94 hlineto
          -75 -15 -39 -40 -47 -87 -18 132 -126 hhcurveto
          -103 -81 -73 -129 -23 hvcurveto
          94 hlineto
          74 12 43 41 47 86 18 -133 128 hhcurveto
          -194 -283 -39 callsubr
        </CharString>
        <CharString name="brokenbar">
          -520 481 775 64 callgsubr
        </CharString>
        <CharString name="brokenbar.uc">
          -520 514 929 64 callgsubr
        </CharString>
        <CharString name="bullet">
          -179 549 294 21 callgsubr
        </CharString>
        <CharString name="bullet.uc">
          -179 584 457 21 callgsubr
        </CharString>
        <CharString name="c">
          -133 647 -91 callgsubr
          endchar
        </CharString>
        <CharString name="cacute">
          -133 647 -91 callgsubr
          122 165 -78 callgsubr
          endchar
        </CharString>
        <CharString name="caron">
          -154 754 1222 -82 callsubr
        </CharString>
        <CharString name="caroncmb">
          264 1222 -82 callsubr
        </CharString>
        <CharString name="caroncmb.short">
          227 1558 -86 callgsubr
        </CharString>
        <CharString name="carondotaccentcmb">
          159 1222 41 callsubr
        </CharString>
        <CharString name="carondotaccentcmb.short">
          211 1544 42 callgsubr
        </CharString>
        <CharString name="caronslovak">
          -255 635 98 callgsubr
          -95 -444 rlineto
          93 95 callsubr
          endchar
        </CharString>
        <CharString name="ccaron">
          -133 647 -91 callgsubr
          125 165 -82 callsubr
        </CharString>
        <CharString name="ccedilla">
          -133 1052 701 rmoveto
          4 0 -2 3 vvcurveto
          189 -7 -143 162 -255 hhcurveto
          -308 -223 -273 -353 -241 128 -175 230 -28 hvcurveto
          -82 -141 -14 -59 56 -1 rlineto
          102 -3 49 -26 -53 vvcurveto
          -56 -52 -31 -83 -54 -48 11 19 -43 vhcurveto
          -19 -90 rlineto
          -20 44 67 -13 62 hhcurveto
          138 94 74 114 94 -69 53 -118 1 hvcurveto
          75 125 193 16 158 130 53 179 rlinecurve
          -131 hlineto
          -127 -50 -115 -83 -147 hhcurveto
          -173 -115 130 206 291 166 213 228 164 103 -104 -135 10 hvcurveto
          endchar
        </CharString>
        <CharString name="ccedillaacute">
          -133 1080 1524 rmoveto
          -152 hlineto
          -286 -302 rlineto
          127 hlineto
          -377 -1376 rmoveto
          -14 -59 56 -1 rlineto
          102 -3 49 -26 -53 vvcurveto
          -56 -52 -31 -83 -54 -48 11 19 -43 vhcurveto
          -19 -90 rlineto
          -20 44 67 -13 62 hhcurveto
          138 94 74 114 94 -69 53 -118 1 hvcurveto
          75 125 193 16 158 130 53 179 rlinecurve
          -131 hlineto
          -127 -50 -115 -83 -147 hhcurveto
          -173 -115 130 206 291 166 213 228 164 103 -104 -135 10 hvcurveto
          129 hlineto
          4 0 -2 3 vvcurveto
          189 -7 -143 162 -255 hhcurveto
          -308 -223 -273 -353 -241 128 -175 230 -28 hvcurveto
          endchar
        </CharString>
        <CharString name="ccircumflex">
          -133 647 -91 callgsubr
          181 467 -59 callsubr
        </CharString>
        <CharString name="cdotaccent">
          -133 647 -91 callgsubr
          82 165 -102 callgsubr
        </CharString>
        <CharString name="cedi">
          65 251 587 rmoveto
          419 248 340 297 vhcurveto
          10 2 0 5 hhcurveto
          -262 -1241 rlineto
          -191 46 -109 180 256 vvcurveto
          980 -212 rmoveto
          -144 hlineto
          -168 -57 -147 -114 -203 hhcurveto
          -9 -11 1 1 -8 hvcurveto
          264 1243 182 -30 108 -127 12 -189 rlinecurve
          0 0 -2 0 vhcurveto
          138 hlineto
          0 0 5 0 vhcurveto
          232 -167 194 -247 42 vhcurveto
          29 136 rlineto
          -104 hlineto
          -27 -126 rlineto
          -6 -3 0 -12 hhcurveto
          -393 -316 -379 -520 -314 159 -230 254 -52 hvcurveto
          -28 -131 rlineto
          104 hlineto
          26 120 rlineto
          -1 8 10 0 10 hhcurveto
          289 218 161 248 71 hvcurveto
          endchar
        </CharString>
        <CharString name="cedilla">
          -154 273 -213 -93 callgsubr
        </CharString>
        <CharString name="cedillacmb">
          -211 -213 -93 callgsubr
        </CharString>
        <CharString name="cent">
          65 1121 471 rmoveto
          -136 hlineto
          -117 -45 -118 -71 -148 hhcurveto
          -186 -116 134 213 300 181 231 238 154 116 -90 -127 16 hvcurveto
          133 hlineto
          11 -2 11 -1 10 vhcurveto
          -25 147 -116 111 -158 32 39 180 rcurveline
          -131 hlineto
          -36 -167 rlineto
          -314 -12 -232 -282 -373 vvcurveto
          -231 125 -164 198 -42 vhcurveto
          -43 -204 rlineto
          131 hlineto
          41 192 219 9 171 120 45 179 rlinecurve
          endchar
        </CharString>
        <CharString name="checyrillic">
          -149 831 -44 callsubr
          endchar
        </CharString>
        <CharString name="chigreek">
          -63 880 -349 rmoveto
          38 20 4 6 25 hvcurveto
          24 111 rlineto
          -4 -20 -22 -1 -13 hhcurveto
          -75 -33 30 84 -24 hvcurveto
          -133 451 529 708 rlineto
          -143 hlineto
          -415 -570 rlineto
          -12 hlineto
          -126 422 rlineto
          112 -33 -61 40 -103 hhcurveto
          -31 -21 -2 -8 -29 hvcurveto
          -24 -111 rlineto
          4 17 26 2 14 hhcurveto
          75 31 -30 -83 25 hvcurveto
          139 -464 -531 -697 rlineto
          144 hlineto
          415 559 rlineto
          12 hlineto
          123 -416 rlineto
          -109 32 50 -38 110 hhcurveto
          endchar
        </CharString>
        <CharString name="circumflex">
          -154 820 9 callsubr
        </CharString>
        <CharString name="circumflexacutecmb">
          308 1507 11 callgsubr
        </CharString>
        <CharString name="circumflexacutecmb.short">
          24 callgsubr
          109 20 rmoveto
          125 26 callgsubr
          endchar
        </CharString>
        <CharString name="circumflexbelowcmb">
          -50 -165 -64 callsubr
        </CharString>
        <CharString name="circumflexcmb">
          320 9 callsubr
        </CharString>
        <CharString name="circumflexcmb.short">
          379 1852 -69 callgsubr
        </CharString>
        <CharString name="circumflexgravecmb">
          587 1523 -6 callsubr
          -176 -16 -81 callsubr
          endchar
        </CharString>
        <CharString name="circumflexgravecmb.short">
          24 callgsubr
          301 20 32 callgsubr
          endchar
        </CharString>
        <CharString name="circumflexhookabovecmb">
          339 1708 -48 callsubr
        </CharString>
        <CharString name="circumflexhookabovecmb.short">
          24 callgsubr
          50 148 rmoveto
          8 25 31 6 30 hhcurveto
          57 36 -27 -42 -44 -38 -32 -54 -16 hvcurveto
          49 -57 rlineto
          88 29 51 58 74 vvcurveto
          79 -66 52 -102 -32 -39 -7 -8 -17 vhcurveto
          endchar
        </CharString>
        <CharString name="circumflextildecmb">
          308 1507 -55 callgsubr
        </CharString>
        <CharString name="circumflextildecmb.short">
          465 1830 -41 callsubr
        </CharString>
        <CharString name="colon">
          -636 220 -9 25 callsubr
          161 757 43 callsubr
          endchar
        </CharString>
        <CharString name="colon.uc">
          -636 275 250 25 callsubr
          161 757 43 callsubr
          endchar
        </CharString>
        <CharString name="coloncurrency">
          65 968 1342 rmoveto
          1 11 11 0 11 hhcurveto
          62 68 -5 -10 59 hvcurveto
          -646 -1110 -59 37 -50 47 -40 54 rlinecurve
          -58 105 rmoveto
          -25 64 -14 71 78 vvcurveto
          327 211 263 332 64 vhcurveto
          628 276 rmoveto
          -119 hlineto
          -92 -158 -64 12 -86 10 -66 2 rlinecurve
          78 134 rlineto
          -119 hlineto
          -79 -136 rlineto
          -474 -37 -296 -337 -435 vvcurveto
          -133 35 -118 62 -99 vhcurveto
          -285 -491 rlineto
          119 hlineto
          234 403 45 -48 53 -42 59 -34 rlinecurve
          -162 -279 rlineto
          120 hlineto
          136 234 rlineto
          -42 105 120 -23 132 hhcurveto
          47 62 5 6 28 hvcurveto
          26 124 rlineto
          -6 -33 -52 -4 -47 hhcurveto
          -119 -108 20 39 -92 hvcurveto
          endchar
        </CharString>
        <CharString name="comma">
          -643 120 -276 54 callsubr
        </CharString>
        <CharString name="commaaccent">
          -136 330 -463 -40 callgsubr
        </CharString>
        <CharString name="commabelowcmb">
          -217 -475 -40 callgsubr
        </CharString>
        <CharString name="copyright">
          529 901 -158 rmoveto
          451 349 359 464 442 -312 303 -455 -451 -349 -359 -465 -440 313 -304 454 hvcurveto
          109 vmoveto
          -392 -266 257 379 403 302 311 389 394 264 -255 -382 -402 -302 -311 -389 hvcurveto
          390 835 rmoveto
          163 -11 -129 109 -183 hhcurveto
          -244 -183 -211 -282 -212 139 -145 205 168 130 91 144 41 hvcurveto
          -106 hlineto
          -91 -37 -81 -51 -108 hhcurveto
          -148 -98 110 166 222 136 167 178 124 95 -75 -105 9 hvcurveto
          endchar
        </CharString>
        <CharString name="cruzeiro">
          65 1063 -2 rmoveto
          26 124 rlineto
          -6 -35 -52 -4 -46 hhcurveto
          -59 -56 6 10 -53 hvcurveto
          70 331 rlineto
          202 42 113 112 163 hhcurveto
          32 49 -7 -7 15 hvcurveto
          30 130 rlineto
          5 -15 -41 3 -27 hhcurveto
          -136 -114 -74 -117 -60 hvcurveto
          -4 hlineto
          37 174 rlineto
          -125 hlineto
          -152 -720 rlineto
          -230 83 -137 184 245 vvcurveto
          386 299 280 410 109 125 -17 -26 67 vhcurveto
          28 124 rlineto
          26 -71 -139 21 -112 hhcurveto
          -506 -356 -335 -473 -395 322 -276 452 48 61 5 6 28 hvcurveto
          endchar
        </CharString>
        <CharString name="currency">
          65 409 656 rmoveto
          157 129 129 157 157 129 -129 -157 -157 -129 -129 -157 -150 -136 128 158 vhcurveto
          848 394 rmoveto
          -68 86 -235 -195 rlineto
          63 -69 -91 38 -99 hhcurveto
          -69 -64 -18 -32 -56 hvcurveto
          -110 140 -95 -76 110 -139 rlineto
          -63 -69 -39 -92 -100 vvcurveto
          -73 21 -68 35 -59 vhcurveto
          -236 -196 67 -85 239 197 rlineto
          -63 69 91 -39 100 hhcurveto
          68 63 18 31 56 hvcurveto
          108 -138 95 75 -108 137 rlineto
          64 69 40 93 101 vvcurveto
          74 -21 69 -36 59 vhcurveto
          endchar
        </CharString>
        <CharString name="cyrilliccentraldescender">
          -480 348 22 rmoveto
          -126 hlineto
          -66 -307 rlineto
          126 hlineto
          endchar
        </CharString>
        <CharString name="cyrilliccentraldescendercap">
          -480 346 22 rmoveto
          -123 hlineto
          -65 -307 rlineto
          123 hlineto
          endchar
        </CharString>
        <CharString name="cyrillicdescender">
          -255 357 1 callgsubr
          84 50 callsubr
          endchar
        </CharString>
        <CharString name="cyrillicdescender.short">
          -255 328 125 callsubr
          -248 hlineto
          -23 -112 rlineto
          120 hlineto
          endchar
        </CharString>
        <CharString name="cyrillicdescendercap">
          -255 366 -6 callgsubr
          endchar
        </CharString>
        <CharString name="cyrillicdescendercap.short">
          -255 322 1 callgsubr
          96 callsubr
          -237 85 callgsubr
          109 hlineto
          endchar
        </CharString>
        <CharString name="cyrillichook">
          -254 146 -367 rmoveto
          30 hlineto
          214 18 callgsubr
          endchar
        </CharString>
        <CharString name="cyrillichookcap">
          -255 147 -370 rmoveto
          25 hlineto
          222 105 76 callsubr
          -14 -63 rlineto
          -141 -29 -59 -50 -124 hhcurveto
          -21 hlineto
          endchar
        </CharString>
        <CharString name="cyrillictail">
          -255 262 -285 rmoveto
          129 hlineto
          171 355 8 114 callsubr
          endchar
        </CharString>
        <CharString name="cyrillictailcap">
          -254 258 71 callgsubr
          -26 -124 rlineto
          167 hlineto
          endchar
        </CharString>
        <CharString name="d">
          -23 498 -17 2 callgsubr
        </CharString>
        <CharString name="dagger">
          -179 735 1149 rmoveto
          280 hlineto
          23 110 rlineto
          -280 hlineto
          60 284 rlineto
          -119 hlineto
          -60 -284 rlineto
          -282 hlineto
          -23 -110 rlineto
          282 hlineto
          -130 -611 rlineto
          118 hlineto
          endchar
        </CharString>
        <CharString name="daggerdbl">
          -179 939 790 rmoveto
          86 callsubr
          -282 hlineto
          29 138 30 138 rlineto
          282 hlineto
          23 110 rlineto
          -280 hlineto
          54 256 rlineto
          -119 hlineto
          -54 -256 rlineto
          -282 hlineto
          -24 -110 rlineto
          284 hlineto
          -30 -138 -29 -138 rlineto
          -284 hlineto
          -23 -111 rlineto
          283 hlineto
          -54 -252 rlineto
          118 hlineto
          54 252 rlineto
          endchar
        </CharString>
        <CharString name="dblgrave">
          -154 739 1222 -42 callgsubr
        </CharString>
        <CharString name="dblgravecmb">
          118 1222 -42 callgsubr
        </CharString>
        <CharString name="dblgravecmb.short">
          81 1558 -33 callgsubr
        </CharString>
        <CharString name="dcaron">
          151 1425 98 callgsubr
          -95 -444 rlineto
          93 95 callsubr
          -1057 -1460 2 callgsubr
        </CharString>
        <CharString name="dcircumflexbelow">
          -23 498 -17 -96 callsubr
          25 -265 -64 callsubr
        </CharString>
        <CharString name="dcommaaccent">
          -23 498 -17 -96 callsubr
          -142 -575 -40 callgsubr
        </CharString>
        <CharString name="dcroat">
          -23 528 100 rmoveto
          -174 -107 127 200 290 177 222 219 178 114 -130 -190 -288 -171 -231 -236 hvcurveto
          827 1220 rmoveto
          -115 hlineto
          26 123 rlineto
          -133 hlineto
          -26 -123 rlineto
          -262 hlineto
          -23 -110 rlineto
          261 hlineto
          -90 -420 rlineto
          -5 hlineto
          153 -27 -141 114 -178 hhcurveto
          -293 -235 -278 -359 -261 151 -176 233 149 144 88 124 71 hvcurveto
          4 hlineto
          -41 -195 rlineto
          134 hlineto
          257 1210 rlineto
          115 hlineto
          endchar
        </CharString>
        <CharString name="ddotaccent">
          -23 498 -17 -96 callsubr
          733 1525 -102 callgsubr
        </CharString>
        <CharString name="ddotbelow">
          -23 498 -17 -96 callsubr
          -44 -480 -102 callgsubr
        </CharString>
        <CharString name="decyrillic">
          6 callgsubr
        </CharString>
        <CharString name="decyrillic.1">
          -49 558 100 rmoveto
          -186 -122 139 210 274 156 204 233 187 119 -127 -195 -286 -163 -219 -224 hvcurveto
          83 944 rmoveto
          -314 -211 -254 -348 -273 175 -186 264 318 214 292 467 13 hvcurveto
          433 18 -158 293 -366 -130 -86 -40 -1 hhcurveto
          -24 -120 rlineto
          19 35 95 28 89 hhcurveto
          260 147 -187 -329 10 hvcurveto
          -8 hlineto
          127 -54 -131 78 -155 hhcurveto
          endchar
        </CharString>
        <CharString name="degree">
          -424 559 905 rmoveto
          153 124 124 153 154 -124 124 -153 -154 -123 -124 -154 -153 123 -124 154 hvcurveto
          101 vmoveto
          -96 -82 80 96 98 82 79 96 99 79 -79 -98 -96 -79 -80 -99 hvcurveto
          endchar
        </CharString>
        <CharString name="deltagreek">
          -74 537 -17 rmoveto
          344 192 264 298 178 -88 148 -240 128 hvcurveto
          -162 85 -38 40 65 vvcurveto
          96 88 53 140 123 112 -28 -54 82 vhcurveto
          29 116 rlineto
          49 -59 -130 33 -134 hhcurveto
          -235 -148 -103 -164 -92 55 -81 125 -63 hvcurveto
          -1 -2 rlineto
          -10 hlineto
          -297 -26 -183 -215 -290 vvcurveto
          -274 191 -161 244 vhcurveto
          14 115 rmoveto
          -166 -149 116 213 268 177 168 221 178 127 -134 -189 -257 -168 -185 -220 hvcurveto
          endchar
        </CharString>
        <CharString name="dieresis">
          -154 554 1227 -104 callgsubr
        </CharString>
        <CharString name="dieresisacutecmb">
          196 1523 rmoveto
          119 hlineto
          301 298 97 callgsubr
          -428 -601 -104 callgsubr
        </CharString>
        <CharString name="dieresisacutecmb.short">
          245 1805 -29 callgsubr
        </CharString>
        <CharString name="dieresisbelowcmb">
          -290 -385 -47 callsubr
          endchar
        </CharString>
        <CharString name="dieresiscaroncmb">
          51 1220 -47 callsubr
          -211 286 113 callgsubr
          335 284 rlineto
          -7 callgsubr
          -240 -203 rlineto
          -4 hlineto
          -153 203 rlineto
          -120 hlineto
          endchar
        </CharString>
        <CharString name="dieresiscaroncmb.short">
          267 1795 19 callsubr
        </CharString>
        <CharString name="dieresiscmb">
          49 1227 -104 callgsubr
        </CharString>
        <CharString name="dieresiscmb.short">
          132 1612 -104 callgsubr
        </CharString>
        <CharString name="dieresisgravecmb">
          326 1523 -6 callsubr
          -173 -303 -104 callgsubr
        </CharString>
        <CharString name="dieresisgravecmb.short">
          392 1805 30 callgsubr
        </CharString>
        <CharString name="dieresismacroncmb">
          51 1220 -37 callsubr
        </CharString>
        <CharString name="dieresismacroncmb.short">
          129 1730 -38 callsubr
        </CharString>
        <CharString name="dieresistonosgreek">
          48 805 1222 -45 callgsubr
        </CharString>
        <CharString name="divide">
          65 1163 516 30 callsubr
        </CharString>
        <CharString name="divide.uc">
          65 1195 669 30 callsubr
        </CharString>
        <CharString name="djecyrillic">
          -61 377 860 rmoveto
          78 367 rlineto
          239 hlineto
          20 97 rlineto
          -239 hlineto
          28 130 rlineto
          -133 hlineto
          -28 -130 rlineto
          -136 hlineto
          -20 -97 rlineto
          136 hlineto
          -261 -1227 rlineto
          133 hlineto
          136 638 rlineto
          173 37 141 128 174 hhcurveto
          154 98 -91 -141 -29 -4 -35 -8 -37 hvcurveto
          -146 -670 -24 -109 -62 -53 -99 2 rlinecurve
          -46 1 -28 -124 rlineto
          23 40 0 19 hhcurveto
          172 -3 92 75 43 198 154 707 rcurveline
          9 39 3 39 35 vvcurveto
          180 -142 134 -195 -149 -131 -79 -118 -74 vhcurveto
          endchar
        </CharString>
        <CharString name="dlinebelow">
          -23 498 -17 -96 callsubr
          276 -342 -74 callsubr
        </CharString>
        <CharString name="dollar">
          65 753 653 rmoveto
          165 -67 82 -75 -131 vvcurveto
          -167 -135 -120 -219 vhcurveto
          -4 -4 0 -5 hhcurveto
          53 735 rmoveto
          -158 67 -75 68 117 vvcurveto
          153 136 115 193 vhcurveto
          5 5 0 5 hhcurveto
          -16 -561 rmoveto
          117 548 131 -33 89 -91 17 -128 rlinecurve
          138 hlineto
          -7 180 -140 152 -202 45 30 139 rcurveline
          -104 hlineto
          -27 -126 rlineto
          -8 -7 0 -8 hhcurveto
          -294 -196 -170 -230 -164 104 -116 207 -85 hvcurveto
          36 -15 -125 -589 -157 34 -106 103 -15 143 rlinecurve
          -138 hlineto
          8 -201 164 -156 218 -45 -29 -135 rcurveline
          104 hlineto
          26 123 rlineto
          -1 9 10 0 9 hhcurveto
          296 214 168 257 177 -115 112 -210 88 hvcurveto
          endchar
        </CharString>
        <CharString name="dotaccent">
          -136 734 1222 -102 callgsubr
        </CharString>
        <CharString name="dotaccentcmb">
          221 1222 -102 callgsubr
        </CharString>
        <CharString name="dotaccentcmb.short">
          307 1625 -102 callgsubr
        </CharString>
        <CharString name="dotbelowcmb">
          -119 -380 -102 callgsubr
        </CharString>
        <CharString name="dotlessi">
          -776 65 hmoveto
          -54 callgsubr
          endchar
        </CharString>
        <CharString name="dotlessj">
          -780 419 1040 13 callgsubr
          endchar
        </CharString>
        <CharString name="dotmacroncmb">
          222 1213 3 callgsubr
        </CharString>
        <CharString name="dotmacroncmb.short">
          298 1570 24 callsubr
        </CharString>
        <CharString name="doublebreve">
          -542 331 1649 rmoveto
          -3 -16 -2 -16 -16 vvcurveto
          -105 85 -64 144 165 123 84 133 28 vhcurveto
          -108 hlineto
          -80 -17 -74 -50 -98 hhcurveto
          -86 -52 38 63 10 1 9 2 10 hvcurveto
          -211 -479 113 callgsubr
          79 17 22 callgsubr
          -28 vhcurveto
          endchar
        </CharString>
        <CharString name="doublebreve.short">
          -542 416 2053 rmoveto
          -3 62 callsubr
          -108 hlineto
          -81 -17 -75 -50 -98 hhcurveto
          -86 -51 39 64 9 1 9 2 10 hvcurveto
          -212 127 callgsubr
          100 hhcurveto
          88 52 -39 -63 -10 81 callsubr
          1 99 callsubr
          endchar
        </CharString>
        <CharString name="dzecyrillic">
          -207 207 -100 callsubr
          endchar
        </CharString>
        <CharString name="dzhecyrillic">
          -95 884 hmoveto
          221 1040 44 callgsubr
          350 hlineto
          -59 -275 rlineto
          123 hlineto
          59 275 rlineto
          endchar
        </CharString>
        <CharString name="e">
          -107 270 599 -106 callgsubr
          endchar
        </CharString>
        <CharString name="eacute">
          -107 270 599 -106 callgsubr
          222 1241 -78 callgsubr
          endchar
        </CharString>
        <CharString name="ebreve">
          -107 270 599 -106 callgsubr
          -89 1520 -68 callgsubr
        </CharString>
        <CharString name="ecaron">
          -107 270 599 -106 callgsubr
          225 1241 -82 callsubr
        </CharString>
        <CharString name="ecedilla">
          -107 270 599 rmoveto
          196 43 136 146 185 hhcurveto
          186 89 -132 -161 -20 0 -13 -3 -16 hvcurveto
          126 -107 rmoveto
          8 42 3 53 44 vvcurveto
          263 -156 163 -251 -303 -219 -278 -352 -237 122 -174 225 -30 vhcurveto
          -81 -140 -14 -59 56 -1 rlineto
          102 -3 49 -26 -53 vvcurveto
          -56 -52 -31 -83 -54 -48 11 19 -43 vhcurveto
          -19 -90 rlineto
          -20 44 67 -13 62 hhcurveto
          138 94 74 114 94 -69 53 -118 1 hvcurveto
          73 122 207 12 163 133 54 183 rlinecurve
          -131 hlineto
          -130 -51 -114 -81 -156 hhcurveto
          -176 -112 127 206 16 1 21 3 23 hvcurveto
          endchar
        </CharString>
        <CharString name="ecedillabreve">
          -107 943 1501 rmoveto
          -123 -21 -94 -76 -117 hhcurveto
          -106 -67 59 95 16 3 16 3 13 hvcurveto
          -99 hlineto
          -5 -18 -3 -20 -23 vvcurveto
          -135 111 -90 149 186 129 110 176 30 vhcurveto
          -772 -902 rmoveto
          196 43 136 146 185 hhcurveto
          186 89 -132 -161 -20 0 -13 -3 -16 hvcurveto
          126 -107 rmoveto
          8 42 3 53 44 vvcurveto
          263 -156 163 -251 -303 -219 -278 -352 -237 122 -174 225 -30 vhcurveto
          -81 -140 -14 -59 56 -1 rlineto
          102 -3 49 -26 -53 vvcurveto
          -56 -52 -31 -83 -54 -48 11 19 -43 vhcurveto
          -19 -90 rlineto
          -20 44 67 -13 62 hhcurveto
          138 94 74 114 94 -69 53 -118 1 hvcurveto
          73 122 207 12 163 133 54 183 rlinecurve
          -131 hlineto
          -130 -51 -114 -81 -156 hhcurveto
          -176 -112 127 206 16 1 21 3 23 hvcurveto
          endchar
        </CharString>
        <CharString name="ecircumflex">
          -107 270 599 -106 callgsubr
          281 1543 -59 callsubr
        </CharString>
        <CharString name="ecircumflexacute">
          -107 270 599 -106 callgsubr
          267 1515 11 callgsubr
        </CharString>
        <CharString name="ecircumflexbelow">
          -107 270 599 -106 callgsubr
          -7 -146 -64 callsubr
        </CharString>
        <CharString name="ecircumflexdotbelow">
          -107 270 599 -106 callgsubr
          281 1543 -77 callgsubr
          -558 -1602 -102 callgsubr
        </CharString>
        <CharString name="ecircumflexgrave">
          -107 270 599 -106 callgsubr
          546 1531 -6 callsubr
          -176 -16 -81 callsubr
          endchar
        </CharString>
        <CharString name="ecircumflexhookabove">
          -107 270 599 -106 callgsubr
          298 1716 -48 callsubr
        </CharString>
        <CharString name="ecircumflextilde">
          -107 270 599 -106 callgsubr
          267 1515 -55 callgsubr
        </CharString>
        <CharString name="ecyrillic">
          1 callsubr
          endchar
        </CharString>
        <CharString name="edblgrave">
          -107 270 599 -106 callgsubr
          79 1241 -42 callgsubr
        </CharString>
        <CharString name="edieresis">
          -107 270 599 -106 callgsubr
          10 1246 -104 callgsubr
        </CharString>
        <CharString name="edotaccent">
          -107 270 599 -106 callgsubr
          182 1241 -102 callgsubr
        </CharString>
        <CharString name="edotbelow">
          -107 270 599 -106 callgsubr
          -76 -361 -102 callgsubr
        </CharString>
        <CharString name="efcyrillic">
          248 633 -357 rmoveto
          73 339 rlineto
          409 5 273 263 363 vvcurveto
          257 -179 176 -275 11 vhcurveto
          74 344 91 callgsubr
          -73 -341 rlineto
          -410 -6 -273 -262 -363 vvcurveto
          -258 180 -176 274 -11 vhcurveto
          -73 -341 rlineto
          749 953 rmoveto
          -277 -209 -211 -312 -11 vhcurveto
          180 844 rlineto
          212 -6 129 -128 -211 vvcurveto
          -992 -151 rmoveto
          277 208 212 312 10 vhcurveto
          -179 -844 rlineto
          -212 6 -129 128 211 vvcurveto
          endchar
        </CharString>
        <CharString name="egrave">
          -107 270 599 -106 callgsubr
          226 1241 -34 callgsubr
        </CharString>
        <CharString name="ehookabove">
          -107 270 599 -106 callgsubr
          51 1443 -63 callsubr
        </CharString>
        <CharString name="eight">
          70 1160 -28 callgsubr
        </CharString>
        <CharString name="eight.dnum">
          -518 569 196 -58 callsubr
        </CharString>
        <CharString name="eight.numr">
          -518 732 961 -58 callsubr
        </CharString>
        <CharString name="eight.subs">
          -518 497 -144 -58 callsubr
        </CharString>
        <CharString name="eight.sups">
          -518 810 1328 -58 callsubr
        </CharString>
        <CharString name="eight.tnum">
          65 1157 -28 callgsubr
        </CharString>
        <CharString name="einvertedbreve">
          -107 270 599 -106 callgsubr
          462 1223 -59 callgsubr
        </CharString>
        <CharString name="elcyrillic">
          -98 391 448 -51 callgsubr
        </CharString>
        <CharString name="ellipsis">
          313 220 -9 25 callsubr
          475 hmoveto
          -2 callgsubr
          475 hmoveto
          -2 callgsubr
          endchar
        </CharString>
        <CharString name="emacron">
          -107 270 599 -106 callgsubr
          472 1400 -72 callgsubr
        </CharString>
        <CharString name="emacronacute">
          -107 270 599 -106 callgsubr
          152 1529 42 callsubr
        </CharString>
        <CharString name="emacrongrave">
          -107 270 599 -106 callgsubr
          287 1529 35 callsubr
        </CharString>
        <CharString name="emcyrillic">
          213 195 28 callgsubr
        </CharString>
        <CharString name="emdash">
          894 50 504 103 callsubr
        </CharString>
        <CharString name="emdash.uc">
          894 84 664 103 callsubr
        </CharString>
        <CharString name="emquad">
          835 endchar
        </CharString>
        <CharString name="emspace">
          790 endchar
        </CharString>
        <CharString name="encyrillic">
          -86 61 hmoveto
          -34 callsubr
        </CharString>
        <CharString name="endash">
          -130 50 504 111 callgsubr
        </CharString>
        <CharString name="endash.uc">
          -130 84 664 111 callgsubr
        </CharString>
        <CharString name="enquad">
          -189 endchar
        </CharString>
        <CharString name="enspace">
          23 endchar
        </CharString>
        <CharString name="eogonek">
          -107 545 -403 rmoveto
          41 42 8 11 16 hvcurveto
          20 92 rlineto
          -8 -16 -25 -4 -31 hhcurveto
          -63 -40 32 51 79 97 91 201 107 hvcurveto
          81 42 82 86 39 126 rrcurveto
          -132 hlineto
          -130 -51 -114 -81 -156 hhcurveto
          -176 -112 127 206 16 1 21 3 23 hvcurveto
          779 hlineto
          8 42 4 53 44 vvcurveto
          263 -157 163 -250 -304 -218 -278 -352 -261 148 -185 271 vhcurveto
          7 13 1 4 hhcurveto
          -2 vlineto
          -127 -70 -61 -76 -91 vvcurveto
          -86 72 -60 104 vhcurveto
          -275 1002 rmoveto
          196 42 136 146 186 hhcurveto
          185 90 -132 -161 -20 -1 -13 -3 -16 hvcurveto
          endchar
        </CharString>
        <CharString name="epsilongreek">
          -10 callgsubr
          endchar
        </CharString>
        <CharString name="epsilontonosgreek">
          -10 callgsubr
          178 1201 16 callgsubr
        </CharString>
        <CharString name="equal">
          65 1105 323 69 callsubr
          1047 380 69 callsubr
          endchar
        </CharString>
        <CharString name="equal.dnum">
          -516 546 181 20 callgsubr
        </CharString>
        <CharString name="equal.numr">
          -516 709 946 20 callgsubr
        </CharString>
        <CharString name="equal.subs">
          -516 474 -159 20 callgsubr
        </CharString>
        <CharString name="equal.sups">
          -516 787 1313 20 callgsubr
        </CharString>
        <CharString name="equal.uc">
          65 1137 473 69 callsubr
          1047 380 69 callsubr
          endchar
        </CharString>
        <CharString name="ercyrillic">
          -24 594 -71 callgsubr
          endchar
        </CharString>
        <CharString name="ereversedcyrillic">
          -84 callsubr
          endchar
        </CharString>
        <CharString name="escyrillic">
          -123 652 -91 callgsubr
          endchar
        </CharString>
        <CharString name="etagreek">
          -9 callgsubr
          endchar
        </CharString>
        <CharString name="etatonosgreek">
          -9 callgsubr
          -227 584 16 callgsubr
        </CharString>
        <CharString name="eth">
          -67 525 -17 rmoveto
          258 200 187 305 74 hvcurveto
          24 100 12 100 103 vvcurveto
          167 -37 144 -85 159 vhcurveto
          205 70 -8 98 -244 -82 -28 38 -33 35 -39 39 rlinecurve
          -149 hlineto
          57 -56 43 -47 35 -44 -285 -94 rcurveline
          6 -98 331 107 72 -125 40 -132 2 -131 rlinecurve
          -5 1 -8 -1 -2 vhcurveto
          -4 -1 rlineto
          119 -45 -128 94 -167 hhcurveto
          -294 -227 -255 -359 -234 157 -192 257 hvcurveto
          415 617 rmoveto
          -267 -190 -232 -213 -182 -106 138 190 279 169 193 220 178 124 -122 -179 vhcurveto
          endchar
        </CharString>
        <CharString name="etilde">
          -107 270 599 -106 callgsubr
          308 1247 -101 callgsubr
          endchar
        </CharString>
        <CharString name="etildebelow">
          -107 270 599 -106 callgsubr
          45 -398 -101 callgsubr
          endchar
        </CharString>
        <CharString name="exclam">
          -621 439 98 callgsubr
          -198 -986 rlineto
          128 hlineto
          221 986 rlineto
          -360 -1452 rmoveto
          52 41 41 52 53 -41 41 -52 -53 -41 -41 -53 -52 41 -41 53 hvcurveto
          endchar
        </CharString>
        <CharString name="exclamdown">
          -621 215 -340 rmoveto
          198 986 rlineto
          -129 hlineto
          -221 -986 rlineto
          363 1453 rmoveto
          -52 -42 -42 -52 -52 42 -41 52 52 41 41 52 52 -41 42 -52 hvcurveto
          endchar
        </CharString>
        <CharString name="f">
          -570 -52 callgsubr
          endchar
        </CharString>
        <CharString name="f.1">
          -486 84 -319 rmoveto
          133 hlineto
          269 1248 rlineto
          239 hlineto
          24 111 rlineto
          -240 hlineto
          21 112 rlineto
          121 24 66 55 105 hhcurveto
          38 36 -4 -6 22 hvcurveto
          22 111 rlineto
          7 -35 -31 4 -39 hhcurveto
          -195 -106 -82 -192 -38 hvcurveto
          -24 -126 rlineto
          -170 hlineto
          -23 -111 rlineto
          169 hlineto
          endchar
        </CharString>
        <CharString name="fdotaccent">
          -570 -52 callgsubr
          332 686 -102 callgsubr
        </CharString>
        <CharString name="fi">
          -198 -52 callgsubr
          331 -929 rmoveto
          -54 callgsubr
          126 19 callgsubr
          endchar
        </CharString>
        <CharString name="figuredash">
          67 50 504 104 callsubr
        </CharString>
        <CharString name="figuredash.uc">
          67 84 664 104 callsubr
        </CharString>
        <CharString name="figurespace">
          107 endchar
        </CharString>
        <CharString name="five">
          32 633 -1 callsubr
        </CharString>
        <CharString name="five.dnum">
          -543 287 -14 -48 callgsubr
        </CharString>
</ttFont>
